<?xml version="1.0" encoding="UTF-8"?>
<svg width="26px" height="26px" viewBox="0 0 26 26" version="1.1" xmlns="http://www.w3.org/2000/svg" xmlns:xlink="http://www.w3.org/1999/xlink">
    <title>Group 11</title>
    <g id="Page-1" stroke="none" stroke-width="1" fill="none" fill-rule="evenodd">
        <g id="Group-11" fill="#AFC1EF">
            <path d="M13,0 C20.1797017,-1.31888981e-15 26,5.82029825 26,13 C26,20.1797017 20.1797017,26 13,26 C5.82029825,26 8.79259876e-16,20.1797017 0,13 C-8.79259876e-16,5.82029825 5.82029825,1.31888981e-15 13,0 Z M16.1333114,7.18382803 L10.2743237,9.50086066 L7.30488086,8.49892446 L5.97279077,9.50086066 L6.55495628,14.3847996 L4.56044477,17.3584503 L6.58227433,18.799206 L10.2743237,17.3584503 L13.2069024,19.183828 L17.4557401,18.2042782 L19.4637637,18.2042782 L20.5604448,16.9137881 L20.5604448,8.49892446 L16.1333114,7.18382803 Z" id="Combined-Shape"></path>
            <polygon id="Rectangle" points="11 10 16.0171772 8 18.0179894 8.59612224 11 11.0145816"></polygon>
            <polygon id="Path-3" points="8.02095174 10 8.02095174 11.0145816 7 11.0145816 7 10"></polygon>
        </g>
    </g>
</svg>