<?xml version="1.0" encoding="UTF-8" standalone="no"?>
<svg
   xmlns:dc="http://purl.org/dc/elements/1.1/"
   xmlns:cc="http://creativecommons.org/ns#"
   xmlns:rdf="http://www.w3.org/1999/02/22-rdf-syntax-ns#"
   xmlns:svg="http://www.w3.org/2000/svg"
   xmlns="http://www.w3.org/2000/svg"
   xmlns:sodipodi="http://sodipodi.sourceforge.net/DTD/sodipodi-0.dtd"
   xmlns:inkscape="http://www.inkscape.org/namespaces/inkscape"
   width="26px"
   height="26px"
   viewBox="0 0 26 26"
   version="1.1"
   id="svg10"
   sodipodi:docname="data.svg"
   inkscape:version="1.0.2-2 (e86c870879, 2021-01-15)">
  <metadata
     id="metadata16">
    <rdf:RDF>
      <cc:Work
         rdf:about="">
        <dc:format>image/svg+xml</dc:format>
        <dc:type
           rdf:resource="http://purl.org/dc/dcmitype/StillImage" />
      </cc:Work>
    </rdf:RDF>
  </metadata>
  <defs
     id="defs14" />
  <sodipodi:namedview
     pagecolor="#ffffff"
     bordercolor="#666666"
     borderopacity="1"
     objecttolerance="10"
     gridtolerance="10"
     guidetolerance="10"
     inkscape:pageopacity="0"
     inkscape:pageshadow="2"
     inkscape:window-width="1920"
     inkscape:window-height="1017"
     id="namedview12"
     showgrid="false"
     inkscape:zoom="30.141365"
     inkscape:cx="13"
     inkscape:cy="13"
     inkscape:window-x="-8"
     inkscape:window-y="-8"
     inkscape:window-maximized="1"
     inkscape:current-layer="svg10" />
  <title
     id="title2">Group 11</title>
  <g
     id="Page-1"
     stroke="none"
     stroke-width="1"
     fill="none"
     fill-rule="evenodd">
    <g
       id="Group-11"
       fill="#afc1ef">
      <path
         d="M 13,0 C 20.179702,0 26,5.8202982 26,13 26,20.179702 20.179702,26 13,26 5.8202982,26 0,20.179702 0,13 0,5.8202982 5.8202982,0 13,0 Z"
         id="Combined-Shape"
         sodipodi:nodetypes="sssss" />
    </g>
    <g
       id="g7"
       fill="#ffffff">
      <path
         id="timeline"
         d="m 22.469169,9.5483835 c 0,0.9662535 -0.773777,1.7568255 -1.719504,1.7568255 -0.154755,0 -0.300913,-0.01757 -0.438473,-0.06149 l -3.060717,3.118365 c 0.04299,0.140546 0.06019,0.298661 0.06019,0.456775 0,0.966254 -0.773777,1.756825 -1.719504,1.756825 -0.945727,0 -1.719504,-0.790571 -1.719504,-1.756825 0,-0.158114 0.01719,-0.316229 0.06018,-0.456775 L 11.73947,12.122132 c -0.13756,0.04392 -0.292316,0.06149 -0.447071,0.06149 -0.154755,0 -0.309511,-0.01757 -0.44707,-0.06149 l -3.9118715,4.005562 c 0.042987,0.140546 0.060182,0.289876 0.060182,0.44799 0,0.966254 -0.7737766,1.756826 -1.7195036,1.756826 -0.945727,0 -1.7195036,-0.790572 -1.7195036,-1.756826 0,-0.966254 0.7737766,-1.756825 1.7195036,-1.756825 0.1547553,0 0.3009132,0.01757 0.4384735,0.06149 l 3.9204682,-3.996778 c -0.042988,-0.140546 -0.060182,-0.298661 -0.060182,-0.456775 0,-0.9662538 0.7737764,-1.7568253 1.7195034,-1.7568253 0.945727,0 1.719504,0.7905715 1.719504,1.7568253 0,0.158114 -0.01719,0.316229 -0.06018,0.456775 l 2.192367,2.239952 c 0.13756,-0.04392 0.292315,-0.06149 0.447071,-0.06149 0.154755,0 0.30951,0.01757 0.447071,0.06149 L 19.09035,9.996374 C 19.04736,9.8558279 19.03017,9.7064978 19.03017,9.5483835 c 0,-0.966254 0.773776,-1.7568255 1.719503,-1.7568255 0.945727,0 1.719504,0.7905715 1.719504,1.7568255 z"
         style="stroke-width:0.869032" />
    </g>
  </g>
</svg>
