<?xml version="1.0" encoding="UTF-8"?>
<svg width="26px" height="26px" viewBox="0 0 26 26" version="1.1" xmlns="http://www.w3.org/2000/svg" xmlns:xlink="http://www.w3.org/1999/xlink">
    <title>Group 25</title>
    <g id="Page-1" stroke="none" stroke-width="1" fill="none" fill-rule="evenodd">
        <g id="Group-25" fill="#EFC2AF">
            <path d="M13,0 C20.1797017,-1.31888981e-15 26,5.82029825 26,13 C26,20.1797017 20.1797017,26 13,26 C5.82029825,26 8.79259876e-16,20.1797017 0,13 C-8.79259876e-16,5.82029825 5.82029825,1.31888981e-15 13,0 Z M13,9.54340567 C9.71154859,9.54340567 9.41638071,10.7328019 9.07158937,11.8571966 L9.0114284,12.0490792 C8.89816026,12.3988383 8.76281542,12.7350967 8.51093068,13.0189131 C7.57087839,14.0781366 6,15.4724004 6,17 C6,20.3137085 9.6862915,23 13,23 C16.3137085,23 20,20.3137085 20,17 C20,15.4837038 18.4375387,14.0987775 17.5098762,13.0424811 C17.2349642,12.7294485 17.0975082,12.35424 16.9754954,11.9675081 L16.9152111,11.7734164 C16.5744905,10.6707792 16.1944957,9.54340567 13,9.54340567 Z M14.5,8 L11.5,8 C11.2238576,8 11,8.22385763 11,8.5 C11,8.74545989 11.1768752,8.94960837 11.4101244,8.99194433 L11.5,9 L14.5,9 C14.7761424,9 15,8.77614237 15,8.5 C15,8.22385763 14.7761424,8 14.5,8 Z M12.1618736,4.10106298 C11.8936042,4.23581362 11.752343,4.5751148 11.7380899,5.11896652 C11.1504207,4.76702955 10.6667287,4.59106107 10.2870139,4.59106107 C9.71744177,4.59106107 9.89154102,5.56686087 10.5625075,6.55846705 C10.9650874,7.15343076 11.2781279,7.54645175 11.5016292,7.73753003 L11.5728133,7.79374343 L14.8685834,7.79374343 C14.9125791,6.97022584 15.1740474,6.33793527 15.6529884,5.89687171 C16.3713999,5.23527637 16.1103076,4.10106298 15.2902194,4.10106298 C14.7434939,4.10106298 14.2342571,4.44036416 13.7625089,5.11896652 C13.9248278,4.62135741 13.863683,4.28205623 13.5790743,4.10106298 C13.1521613,3.82957311 12.5642778,3.89893702 12.1618736,4.10106298 Z" id="Combined-Shape"></path>
            <path d="M12.68,21.115 C12.7766667,21.115 12.855,21.0825 12.915,21.0175 C12.975,20.9525 13.0083333,20.8816667 13.015,20.805 L13.015,20.805 L13.075,20.07 C13.4483333,20.0433333 13.78,19.965 14.07,19.835 C14.36,19.705 14.6041667,19.5358333 14.8025,19.3275 C15.0008333,19.1191667 15.1516667,18.8791667 15.255,18.6075 C15.3583333,18.3358333 15.41,18.045 15.41,17.735 C15.41,17.4216667 15.3516667,17.1608333 15.235,16.9525 C15.1183333,16.7441667 14.9658333,16.57 14.7775,16.43 C14.5891667,16.29 14.3775,16.1758333 14.1425,16.0875 C13.9075,15.9991667 13.67,15.9183333 13.43,15.845 L13.43,15.845 L13.605,13.775 C13.735,13.805 13.8533333,13.8433333 13.96,13.89 C14.0666667,13.9366667 14.1641667,13.9825 14.2525,14.0275 C14.3408333,14.0725 14.4191667,14.1108333 14.4875,14.1425 C14.5558333,14.1741667 14.615,14.19 14.665,14.19 C14.7316667,14.19 14.7883333,14.1733333 14.835,14.14 C14.8816667,14.1066667 14.9283333,14.0566667 14.975,13.99 L14.975,13.99 L15.275,13.535 C15.085,13.355 14.8616667,13.1933333 14.605,13.05 C14.3483333,12.9066667 14.0433333,12.8066667 13.69,12.75 L13.69,12.75 L13.775,11.765 L13.32,11.765 C13.2233333,11.765 13.145,11.7966667 13.085,11.86 C13.025,11.9233333 12.9916667,11.995 12.985,12.075 L12.985,12.075 L12.93,12.705 C12.5633333,12.7216667 12.2383333,12.7916667 11.955,12.915 C11.6716667,13.0383333 11.4333333,13.195 11.24,13.385 C11.0466667,13.575 10.8991667,13.7908333 10.7975,14.0325 C10.6958333,14.2741667 10.645,14.5216667 10.645,14.775 C10.645,15.115 10.7016667,15.3983333 10.815,15.625 C10.9283333,15.8516667 11.0775,16.0391667 11.2625,16.1875 C11.4475,16.3358333 11.6558333,16.455 11.8875,16.545 C12.1191667,16.635 12.3533333,16.7133333 12.59,16.78 L12.59,16.78 L12.4,19.02 C12.2133333,18.9866667 12.0516667,18.935 11.915,18.865 C11.7783333,18.795 11.6566667,18.725 11.55,18.655 C11.4433333,18.585 11.3483333,18.5241667 11.265,18.4725 C11.1816667,18.4208333 11.1033333,18.395 11.03,18.395 C10.97,18.395 10.9125,18.4108333 10.8575,18.4425 C10.8025,18.4741667 10.7583333,18.515 10.725,18.565 L10.725,18.565 L10.345,19.13 C10.585,19.3666667 10.8758333,19.565 11.2175,19.725 C11.5591667,19.885 11.925,19.9916667 12.315,20.045 L12.315,20.045 L12.225,21.115 L12.68,21.115 Z M12.685,15.605 C12.5583333,15.5583333 12.4416667,15.5058333 12.335,15.4475 C12.2283333,15.3891667 12.1358333,15.3225 12.0575,15.2475 C11.9791667,15.1725 11.9183333,15.0866667 11.875,14.99 C11.8316667,14.8933333 11.81,14.7816667 11.81,14.655 C11.81,14.545 11.8291667,14.4408333 11.8675,14.3425 C11.9058333,14.2441667 11.9666667,14.155 12.05,14.075 C12.1333333,13.995 12.24,13.9275 12.37,13.8725 C12.5,13.8175 12.6566667,13.7783333 12.84,13.755 L12.84,13.755 L12.685,15.605 Z M13.165,19.035 L13.335,17.005 C13.465,17.0483333 13.585,17.0966667 13.695,17.15 C13.805,17.2033333 13.9008333,17.2666667 13.9825,17.34 C14.0641667,17.4133333 14.1275,17.4975 14.1725,17.5925 C14.2175,17.6875 14.24,17.7983333 14.24,17.925 C14.24,18.235 14.1491667,18.4858333 13.9675,18.6775 C13.7858333,18.8691667 13.5183333,18.9883333 13.165,19.035 L13.165,19.035 Z" id="$" fill-rule="nonzero"></path>
        </g>
    </g>
</svg>