<?xml version="1.0" encoding="UTF-8"?>
<svg width="26px" height="26px" viewBox="0 0 26 26" version="1.1" xmlns="http://www.w3.org/2000/svg" xmlns:xlink="http://www.w3.org/1999/xlink">
    <title>Combined Shape</title>
    <g id="Page-1" stroke="none" stroke-width="1" fill="none" fill-rule="evenodd">
        <g id="Group-15" fill="#FBC9A4">
            <path d="M13,0 C20.1797017,-1.31888981e-15 26,5.82029825 26,13 C26,20.1797017 20.1797017,26 13,26 C5.82029825,26 8.79259876e-16,20.1797017 0,13 C-8.79259876e-16,5.82029825 5.82029825,1.31888981e-15 13,0 Z M10.9698005,4 C11.0849585,4.09864207 11.1861401,4.17714143 11.2766464,4.26345324 C12.229327,5.16592952 12.4234496,6.21157491 12.0828922,7.35270581 C11.8533255,8.11806962 11.3868646,8.78605398 10.883836,9.44344419 C10.3622425,10.1244296 9.84682953,10.8107614 9.38533171,11.5210237 C8.71114644,12.5581859 8.21052911,13.6530537 8.04637232,14.8408028 C7.87444313,16.0854092 8.17349316,17.2291443 9.06244945,18.2461637 C9.73331039,19.0137963 10.5745086,19.5937328 11.6769015,19.8668727 C11.8994215,19.9218163 12.1285199,19.9564988 12.3543877,20 C12.2758209,19.9429652 12.1873748,19.9141814 12.1018316,19.8821425 C11.2001164,19.5450233 10.6201363,18.9836316 10.4407859,18.1564192 C10.31617,17.5787121 10.4325921,17.0170047 10.6407144,16.4654771 C10.9113905,15.7477772 11.3774066,15.115521 11.8463257,14.4818443 C12.263858,13.9178879 12.6776913,13.3490388 13.0392717,12.758883 C13.4682753,12.0600632 13.6764444,11.3102848 13.5378289,10.5144011 C13.5180701,10.4031329 13.4913115,10.2929102 13.4682753,10.1817998 C13.5451799,10.2346522 13.5962155,10.2946266 13.6397831,10.3582113 C14.5098,11.6236509 14.7302598,12.9816168 14.4159928,14.4046865 C14.3238945,14.8222581 14.1544001,15.2273022 14.0260385,15.6391131 C13.8705671,16.1403529 14.139979,16.5549455 14.6796924,16.6564876 C15.1626112,16.7474553 15.5792772,16.4833313 15.5718794,16.0668645 C15.5698193,15.8878292 15.4999145,15.7099973 15.4571195,15.5319878 C15.4427218,15.4699419 15.4192642,15.4094546 15.3991074,15.3482571 C15.4135051,15.3409773 15.4287221,15.3333818 15.4427218,15.3264177 C15.5126266,15.3938691 15.5908188,15.4564082 15.6516635,15.5295612 C16.0354374,15.9973613 16.2983177,16.5124308 16.4661265,17.060999 C16.6051635,17.5142593 16.6750917,17.9763382 16.5418372,18.4387328 C16.4759825,18.6668327 16.3633062,18.8853841 16.2736427,19.1037579 C16.3209325,19.0734353 16.3826435,19.0359908 16.4418729,18.9959421 C17.0667082,18.5768909 17.5389281,18.0523913 17.9091237,17.4622355 C19.0843243,15.5931853 19.4775561,13.6126499 19.0045167,11.5343601 C18.2958005,8.42259742 16.2826792,6.11224234 12.9244884,4.65567383 C12.3062316,4.38788034 11.6596243,4.17576044 10.9698005,4 Z" id="Combined-Shape"></path>
        </g>
    </g>
</svg>