<?xml version="1.0" encoding="UTF-8"?>
<svg width="26px" height="26px" viewBox="0 0 26 26" version="1.1" xmlns="http://www.w3.org/2000/svg" xmlns:xlink="http://www.w3.org/1999/xlink">
    <title>Group 16</title>
    <g id="Page-1" stroke="none" stroke-width="1" fill="none" fill-rule="evenodd">
        <g id="Group-16" fill="#AFEFEF">
            <path d="M13,0 C20.1797017,-1.31888981e-15 26,5.82029825 26,13 C26,20.1797017 20.1797017,26 13,26 C5.82029825,26 8.79259876e-16,20.1797017 0,13 C-8.79259876e-16,5.82029825 5.82029825,1.31888981e-15 13,0 Z M13,5 C9,9.92165046 7,13.4044805 7,15.44849 C7,18.5145043 9.6862915,21 13,21 C16.3137085,21 19,18.5145043 19,15.44849 C19,13.4044805 17,9.92165046 13,5 Z" id="Combined-Shape"></path>
            <path d="M15.4983122,19 C16.8799562,19 18,17.8807119 18,16.5 C18,15.1192881 16.8799562,14 15.4983122,14 C14.1166681,14 14,15.1192881 14,16.5 C14,17.8807119 14.1166681,19 15.4983122,19 Z" id="Combined-Shape"></path>
        </g>
    </g>
</svg>