<?xml version="1.0" encoding="UTF-8"?>
<svg width="26px" height="26px" viewBox="0 0 26 26" version="1.1" xmlns="http://www.w3.org/2000/svg" xmlns:xlink="http://www.w3.org/1999/xlink">
    <title>Combined Shape</title>
    <g id="Page-1" stroke="none" stroke-width="1" fill="none" fill-rule="evenodd">
        <path d="M13,0 C20.1797017,-1.31888981e-15 26,5.82029825 26,13 C26,20.1797017 20.1797017,26 13,26 C5.82029825,26 8.79259876e-16,20.1797017 0,13 C-8.79259876e-16,5.82029825 5.82029825,1.31888981e-15 13,0 Z M13.213,16.5605 C13.0316667,16.5605 12.8616667,16.5945 12.703,16.6625 C12.5443333,16.7305 12.4069167,16.8211667 12.29075,16.9345 C12.1745833,17.0478333 12.0839167,17.1838333 12.01875,17.3425 C11.9535833,17.5011667 11.921,17.6683333 11.921,17.844 C11.921,18.0253333 11.9535833,18.1939167 12.01875,18.34975 C12.0839167,18.5055833 12.1745833,18.6401667 12.29075,18.7535 C12.4069167,18.8668333 12.5443333,18.9560833 12.703,19.02125 C12.8616667,19.0864167 13.0316667,19.119 13.213,19.119 C13.3886667,19.119 13.5558333,19.0864167 13.7145,19.02125 C13.8731667,18.9560833 14.0091667,18.8668333 14.1225,18.7535 C14.2358333,18.6401667 14.3265,18.5055833 14.3945,18.34975 C14.4625,18.1939167 14.4965,18.0253333 14.4965,17.844 C14.4965,17.6683333 14.4625,17.5011667 14.3945,17.3425 C14.3265,17.1838333 14.2358333,17.0478333 14.1225,16.9345 C14.0091667,16.8211667 13.8731667,16.7305 13.7145,16.6625 C13.5558333,16.5945 13.3886667,16.5605 13.213,16.5605 Z M13.57,6.573 C13.2073333,6.573 12.8701667,6.60558333 12.5585,6.67075 C12.2468333,6.73591667 11.9578333,6.82516667 11.6915,6.9385 C11.4251667,7.05183333 11.17725,7.185 10.94775,7.338 C10.79475,7.44 10.6499352,7.54577778 10.5133056,7.65533333 L10.3145,7.8225 L10.867,8.698 C10.9576667,8.868 11.105,8.953 11.309,8.953 C11.394,8.953 11.4903333,8.91758333 11.598,8.84675 C11.7056667,8.77591667 11.8374167,8.69658333 11.99325,8.60875 C12.1490833,8.52091667 12.3389167,8.44158333 12.56275,8.37075 C12.7865833,8.29991667 13.06,8.2645 13.383,8.2645 C13.604,8.2645 13.8094167,8.29566667 13.99925,8.358 C14.1890833,8.42033333 14.352,8.50958333 14.488,8.62575 C14.624,8.74191667 14.73025,8.88075 14.80675,9.04225 C14.88325,9.20375 14.9215,9.3865 14.9215,9.5905 C14.9215,9.8965 14.8591667,10.1628333 14.7345,10.3895 C14.6098333,10.6161667 14.454,10.81875 14.267,10.99725 C14.08,11.17575 13.8788333,11.3415 13.6635,11.4945 C13.4481667,11.6475 13.247,11.80475 13.06,11.96625 C12.873,12.12775 12.7171667,12.3005833 12.5925,12.48475 C12.4927667,12.6320833 12.4329267,12.80027 12.41298,12.98931 L12.4055,13.135 L12.4055,13.20725 L12.407625,13.2401875 L12.407625,13.2401875 L12.414,13.2795 L12.5585,14.665 L13.995,14.665 L14.1905,13.424 C14.2188333,13.2426667 14.30525,13.07975 14.44975,12.93525 C14.59425,12.79075 14.7656667,12.6434167 14.964,12.49325 C15.1623333,12.3430833 15.372,12.183 15.593,12.013 C15.814,11.843 16.0194167,11.6418333 16.20925,11.4095 C16.3990833,11.1771667 16.5563333,10.90375 16.681,10.58925 C16.8056667,10.27475 16.868,9.90216667 16.868,9.4715 C16.868,9.0295 16.7886667,8.63 16.63,8.273 C16.4713333,7.916 16.2475,7.61141667 15.9585,7.35925 C15.6695,7.10708333 15.3224167,6.913 14.91725,6.777 C14.5120833,6.641 14.063,6.573 13.57,6.573 Z" id="Combined-Shape" fill="#DDEFAF"></path>
    </g>
</svg>