<?xml version="1.0" encoding="UTF-8"?>
<svg width="26px" height="26px" viewBox="0 0 26 26" version="1.1" xmlns="http://www.w3.org/2000/svg" xmlns:xlink="http://www.w3.org/1999/xlink">
    <title>Combined Shape</title>
    <g id="Page-1" stroke="none" stroke-width="1" fill="none" fill-rule="evenodd">
        <g id="Group-14" fill="#A7F1D5">
            <path d="M13,0 C20.1797017,-1.31888981e-15 26,5.82029825 26,13 C26,20.1797017 20.1797017,26 13,26 C5.82029825,26 8.79259876e-16,20.1797017 0,13 C-8.79259876e-16,5.82029825 5.82029825,1.31888981e-15 13,0 Z M13.2916327,5.24463706 L14.0349054,10.6608783 C14.0894509,11.0579672 13.7359963,11.407814 13.2807236,11.407814 L9.2218145,11.407814 C8.31345086,11.407814 7.72363268,12.2479571 8.13163268,12.9597804 L12.6676327,20.8792138 C12.7927236,21.0975489 13.1687236,20.9979574 13.135269,20.7553629 L12.3919963,15.3391217 C12.3381781,14.9420328 12.6909054,14.5928244 13.1461781,14.5928244 L17.2050872,14.5928244 C18.1134509,14.5928244 18.703269,13.7526813 18.295269,13.0402196 L13.759269,5.12078619 C13.6349054,4.90245114 13.2581781,5.00204256 13.2916327,5.24463706 Z" id="Combined-Shape"></path>
        </g>
    </g>
</svg>