<?xml version="1.0" encoding="UTF-8" standalone="no"?>
<svg
   xmlns:dc="http://purl.org/dc/elements/1.1/"
   xmlns:cc="http://creativecommons.org/ns#"
   xmlns:rdf="http://www.w3.org/1999/02/22-rdf-syntax-ns#"
   xmlns:svg="http://www.w3.org/2000/svg"
   xmlns="http://www.w3.org/2000/svg"
   xmlns:sodipodi="http://sodipodi.sourceforge.net/DTD/sodipodi-0.dtd"
   xmlns:inkscape="http://www.inkscape.org/namespaces/inkscape"
   width="26px"
   height="26px"
   viewBox="0 0 26 26"
   version="1.1"
   id="svg12"
   sodipodi:docname="security.svg"
   inkscape:version="1.0.2-2 (e86c870879, 2021-01-15)">
  <metadata
     id="metadata18">
    <rdf:RDF>
      <cc:Work
         rdf:about="">
        <dc:format>image/svg+xml</dc:format>
        <dc:type
           rdf:resource="http://purl.org/dc/dcmitype/StillImage" />
      </cc:Work>
    </rdf:RDF>
  </metadata>
  <defs
     id="defs16" />
  <sodipodi:namedview
     pagecolor="#ffffff"
     bordercolor="#666666"
     borderopacity="1"
     objecttolerance="10"
     gridtolerance="10"
     guidetolerance="10"
     inkscape:pageopacity="0"
     inkscape:pageshadow="2"
     inkscape:window-width="1920"
     inkscape:window-height="1017"
     id="namedview14"
     showgrid="false"
     inkscape:zoom="30.141365"
     inkscape:cx="13"
     inkscape:cy="13"
     inkscape:window-x="-8"
     inkscape:window-y="-8"
     inkscape:window-maximized="1"
     inkscape:current-layer="svg12" />
  <title
     id="title2">Combined Shape</title>
  <g
     id="Page-1"
     stroke="none"
     stroke-width="1"
     fill="none"
     fill-rule="evenodd">
    <path
       d="M 13,0 C 20.179702,0 26,5.8202982 26,13 26,20.179702 20.179702,26 13,26 5.8202982,26 0,20.179702 0,13 0,5.8202982 5.8202982,0 13,0 Z"
       id="Combined-Shape"
       fill="#ddefaf"
       sodipodi:nodetypes="sssss" />
  </g>
  <g
     id="g10"
     transform="matrix(0.77329052,0,0,0.76926906,3.831943,3.9133777)">
    <path
       fill="#ffffff"
       d="M 21,5 12,1 3,5 v 6 c 0,5.55 3.84,10.74 9,12 2.3,-0.56 4.33,-1.9 5.88,-3.71 l -3.12,-3.12 c -1.94,1.29 -4.58,1.07 -6.29,-0.64 -1.95,-1.95 -1.95,-5.12 0,-7.07 1.95,-1.95 5.12,-1.95 7.07,0 1.71,1.71 1.92,4.35 0.64,6.29 l 2.9,2.9 C 20.29,15.69 21,13.38 21,11 Z"
       id="path6" />
    <circle
       fill="#ffffff"
       cx="12"
       cy="12"
       r="3"
       id="circle8" />
  </g>
</svg>
