<?xml version="1.0" encoding="UTF-8"?>
<svg width="27px" height="19px" viewBox="0 0 27 19" version="1.1" xmlns="http://www.w3.org/2000/svg" xmlns:xlink="http://www.w3.org/1999/xlink">
    <title>AD Copy</title>
    <defs>
        <rect id="path-1" x="0.596119929" y="0.586466165" width="25.037037" height="17.0526316" rx="2"></rect>
    </defs>
    <g id="Page-1" stroke="none" stroke-width="1" fill="none" fill-rule="evenodd">
        <g id="AD-Copy">
            <rect id="Rectangle" fill="#15149A" x="0" y="0" width="26" height="18" rx="2"></rect>
            <mask id="mask-2" fill="white">
                <use xlink:href="#path-1"></use>
            </mask>
            <use id="overlay" stroke-opacity="0.156646286" stroke="#2F343A" xlink:href="#path-1"></use>
            <g id="Group" mask="url(#mask-2)" fill="#F5A623">
                <g transform="translate(7.000000, 3.000000)">
                    <polygon id="Star" points="6 0.818181818 5.67938986 0.986736542 5.74062095 0.629731908 5.4812419 0.376899821 5.83969493 0.324813547 6 0 6.16030507 0.324813547 6.5187581 0.376899821 6.25937905 0.629731908 6.32061014 0.986736542"></polygon>
                    <polygon id="Star-Copy" points="8.18181818 1.90909091 7.86120804 2.07764563 7.92243913 1.720641 7.66306008 1.46780891 8.02151311 1.41572264 8.18181818 1.09090909 8.34212325 1.41572264 8.70057628 1.46780891 8.44119723 1.720641 8.50242832 2.07764563"></polygon>
                    <polygon id="Star-Copy-2" points="10.3636364 3 10.0430262 3.16855472 10.1042573 2.81155009 9.84487826 2.558718 10.2033313 2.50663173 10.3636364 2.18181818 10.5239414 2.50663173 10.8823945 2.558718 10.6230154 2.81155009 10.6842465 3.16855472"></polygon>
                    <polygon id="Star-Copy-3" points="11.4545455 5.18181818 11.1339353 5.35037291 11.1951664 4.99336827 10.9357874 4.74053618 11.2942404 4.68844991 11.4545455 4.36363636 11.6148505 4.68844991 11.9733036 4.74053618 11.7139245 4.99336827 11.7751556 5.35037291"></polygon>
                    <polygon id="Star-Copy-4" points="11.4545455 7.36363636 11.1339353 7.53219109 11.1951664 7.17518645 10.9357874 6.92235437 11.2942404 6.87026809 11.4545455 6.54545455 11.6148505 6.87026809 11.9733036 6.92235437 11.7139245 7.17518645 11.7751556 7.53219109"></polygon>
                    <polygon id="Star-Copy-5" points="10.3636364 9.54545455 10.0430262 9.71400927 10.1042573 9.35700463 9.84487826 9.10417255 10.2033313 9.05208627 10.3636364 8.72727273 10.5239414 9.05208627 10.8823945 9.10417255 10.6230154 9.35700463 10.6842465 9.71400927"></polygon>
                    <polygon id="Star-Copy-6" points="8.18181818 10.6363636 7.86120804 10.8049184 7.92243913 10.4479137 7.66306008 10.1950816 8.02151311 10.1429954 8.18181818 9.81818182 8.34212325 10.1429954 8.70057628 10.1950816 8.44119723 10.4479137 8.50242832 10.8049184"></polygon>
                    <polygon id="Star-Copy-7" points="6 11.7272727 5.67938986 11.8958275 5.74062095 11.5388228 5.4812419 11.2859907 5.83969493 11.2339045 6 10.9090909 6.16030507 11.2339045 6.5187581 11.2859907 6.25937905 11.5388228 6.32061014 11.8958275"></polygon>
                    <polygon id="Star-Copy-8" points="3.81818182 10.6363636 3.49757168 10.8049184 3.55880277 10.4479137 3.29942372 10.1950816 3.65787675 10.1429954 3.81818182 9.81818182 3.97848689 10.1429954 4.33693992 10.1950816 4.07756087 10.4479137 4.13879196 10.8049184"></polygon>
                    <polygon id="Star-Copy-9" points="1.63636364 9.54545455 1.3157535 9.71400927 1.37698459 9.35700463 1.11760554 9.10417255 1.47605857 9.05208627 1.63636364 8.72727273 1.79666871 9.05208627 2.15512174 9.10417255 1.89574269 9.35700463 1.95697377 9.71400927"></polygon>
                    <polygon id="Star-Copy-10" points="0.545454545 7.36363636 0.224844408 7.53219109 0.286075496 7.17518645 0.0266964457 6.92235437 0.385149477 6.87026809 0.545454545 6.54545455 0.705759614 6.87026809 1.06421265 6.92235437 0.804833595 7.17518645 0.866064683 7.53219109"></polygon>
                    <polygon id="Star-Copy-11" points="0.545454545 5.18181818 0.224844408 5.35037291 0.286075496 4.99336827 0.0266964457 4.74053618 0.385149477 4.68844991 0.545454545 4.36363636 0.705759614 4.68844991 1.06421265 4.74053618 0.804833595 4.99336827 0.866064683 5.35037291"></polygon>
                    <polygon id="Star-Copy-12" points="1.63636364 3 1.3157535 3.16855472 1.37698459 2.81155009 1.11760554 2.558718 1.47605857 2.50663173 1.63636364 2.18181818 1.79666871 2.50663173 2.15512174 2.558718 1.89574269 2.81155009 1.95697377 3.16855472"></polygon>
                    <polygon id="Star-Copy-13" points="3.81818182 1.90909091 3.49757168 2.07764563 3.55880277 1.720641 3.29942372 1.46780891 3.65787675 1.41572264 3.81818182 1.09090909 3.97848689 1.41572264 4.33693992 1.46780891 4.07756087 1.720641 4.13879196 2.07764563"></polygon>
                </g>
            </g>
        </g>
    </g>
</svg>