<?xml version="1.0" encoding="UTF-8"?>
<svg width="64px" height="26px" viewBox="0 0 64 26" version="1.1" xmlns="http://www.w3.org/2000/svg" xmlns:xlink="http://www.w3.org/1999/xlink">
    <title>other</title>
    <g id="Page-1" stroke="none" stroke-width="1" fill="none" fill-rule="evenodd">
        <g id="other">
            <rect id="Rectangle" fill="#DDEFAF" x="0" y="0" width="64" height="26" rx="13"></rect>
            <path d="M18.607,17.112 C19.3723333,17.112 20.07,16.9825 20.7,16.7235 C21.33,16.4645 21.869,16.104 22.317,15.642 C22.765,15.18 23.1126667,14.6328333 23.36,14.0005 C23.6073333,13.3681667 23.731,12.681 23.731,11.939 C23.731,11.197 23.6073333,10.5098333 23.36,9.8775 C23.1126667,9.24516667 22.765,8.69916667 22.317,8.2395 C21.869,7.77983333 21.33,7.41933333 20.7,7.158 C20.07,6.89666667 19.3723333,6.766 18.607,6.766 C17.8416667,6.766 17.1428333,6.8955 16.5105,7.1545 C15.8781667,7.4135 15.3368333,7.774 14.8865,8.236 C14.4361667,8.698 14.0873333,9.24516667 13.84,9.8775 C13.5926667,10.5098333 13.469,11.197 13.469,11.939 C13.469,12.681 13.5926667,13.3681667 13.84,14.0005 C14.0873333,14.6328333 14.4361667,15.18 14.8865,15.642 C15.3368333,16.104 15.8781667,16.4645 16.5105,16.7235 C17.1428333,16.9825 17.8416667,17.112 18.607,17.112 Z M18.607,15.502 C18.1123333,15.502 17.6666667,15.4203333 17.27,15.257 C16.8733333,15.0936667 16.5361667,14.8591667 16.2585,14.5535 C15.9808333,14.2478333 15.7673333,13.8745 15.618,13.4335 C15.4686667,12.9925 15.394,12.4943333 15.394,11.939 C15.394,11.3836667 15.4686667,10.8855 15.618,10.4445 C15.7673333,10.0035 15.9808333,9.629 16.2585,9.321 C16.5361667,9.013 16.8733333,8.77733333 17.27,8.614 C17.6666667,8.45066667 18.1123333,8.369 18.607,8.369 C19.1016667,8.369 19.5461667,8.45066667 19.9405,8.614 C20.3348333,8.77733333 20.6696667,9.013 20.945,9.321 C21.2203333,9.629 21.4315,10.0035 21.5785,10.4445 C21.7255,10.8855 21.799,11.3836667 21.799,11.939 C21.799,12.4943333 21.7255,12.9925 21.5785,13.4335 C21.4315,13.8745 21.2203333,14.2478333 20.945,14.5535 C20.6696667,14.8591667 20.3348333,15.0936667 19.9405,15.257 C19.5461667,15.4203333 19.1016667,15.502 18.607,15.502 Z M27.476,17.112 C27.826,17.112 28.1643333,17.0583333 28.491,16.951 C28.8176667,16.8436667 29.107,16.685 29.359,16.475 L29.359,16.475 L28.841,15.635 C28.8036667,15.5836667 28.7686667,15.5451667 28.736,15.5195 C28.7033333,15.4938333 28.6613333,15.481 28.61,15.481 C28.568,15.481 28.526,15.4938333 28.484,15.5195 C28.442,15.5451667 28.3941667,15.572 28.3405,15.6 C28.2868333,15.628 28.2238333,15.6548333 28.1515,15.6805 C28.0791667,15.7061667 27.9893333,15.719 27.882,15.719 C27.6953333,15.719 27.546,15.656 27.434,15.53 C27.322,15.404 27.266,15.229 27.266,15.005 L27.266,15.005 L27.266,11.113 L29.156,11.113 L29.156,9.881 L27.266,9.881 L27.266,7.62 L26.37,7.62 C26.2673333,7.62 26.1821667,7.64566667 26.1145,7.697 C26.0468333,7.74833333 26.0036667,7.82066667 25.985,7.914 L25.985,7.914 L25.621,9.874 L24.466,10.063 L24.466,10.749 C24.466,10.8703333 24.4998333,10.9613333 24.5675,11.022 C24.6351667,11.0826667 24.7156667,11.113 24.809,11.113 L24.809,11.113 L25.537,11.113 L25.537,15.124 C25.537,15.7446667 25.705,16.2311667 26.041,16.5835 C26.377,16.9358333 26.8553333,17.112 27.476,17.112 Z M32.264,17 L32.264,11.806 C32.4973333,11.5726667 32.7446667,11.3883333 33.006,11.253 C33.2673333,11.1176667 33.5473333,11.05 33.846,11.05 C34.252,11.05 34.5565,11.1701667 34.7595,11.4105 C34.9625,11.6508333 35.064,11.9903333 35.064,12.429 L35.064,12.429 L35.064,17 L36.793,17 L36.793,12.429 C36.793,12.0276667 36.7405,11.6601667 36.6355,11.3265 C36.5305,10.9928333 36.3765,10.7058333 36.1735,10.4655 C35.9705,10.2251667 35.7173333,10.0385 35.414,9.9055 C35.1106667,9.7725 34.763,9.706 34.371,9.706 C33.9183333,9.706 33.524,9.78766667 33.188,9.951 C32.852,10.1143333 32.544,10.329 32.264,10.595 L32.264,10.595 L32.264,6.598 L30.535,6.598 L30.535,17 L32.264,17 Z M41.546,17.105 C41.798,17.105 42.0581667,17.0863333 42.3265,17.049 C42.5948333,17.0116667 42.8585,16.9475 43.1175,16.8565 C43.3765,16.7655 43.625,16.6441667 43.863,16.4925 C44.101,16.3408333 44.3156667,16.153 44.507,15.929 L44.507,15.929 L44.003,15.299 C43.9656667,15.2476667 43.9213333,15.208 43.87,15.18 C43.8186667,15.152 43.758,15.138 43.688,15.138 C43.5806667,15.138 43.4698333,15.1706667 43.3555,15.236 C43.2411667,15.3013333 43.1081667,15.3736667 42.9565,15.453 C42.8048333,15.5323333 42.6275,15.6046667 42.4245,15.67 C42.2215,15.7353333 41.98,15.768 41.7,15.768 C41.1306667,15.768 40.6733333,15.5953333 40.328,15.25 C39.9826667,14.9046667 39.7843333,14.3633333 39.733,13.626 L39.733,13.626 L44.171,13.626 C44.2503333,13.626 44.3156667,13.6155 44.367,13.5945 C44.4183333,13.5735 44.4591667,13.5385 44.4895,13.4895 C44.5198333,13.4405 44.5408333,13.3728333 44.5525,13.2865 C44.5641667,13.2001667 44.57,13.0916667 44.57,12.961 C44.57,12.443 44.493,11.9821667 44.339,11.5785 C44.185,11.1748333 43.9703333,10.8341667 43.695,10.5565 C43.4196667,10.2788333 43.0918333,10.0676667 42.7115,9.923 C42.3311667,9.77833333 41.9146667,9.706 41.462,9.706 C40.9253333,9.706 40.4435,9.79933333 40.0165,9.986 C39.5895,10.1726667 39.2278333,10.4258333 38.9315,10.7455 C38.6351667,11.0651667 38.4076667,11.4408333 38.249,11.8725 C38.0903333,12.3041667 38.011,12.765 38.011,13.255 C38.011,13.885 38.102,14.4391667 38.284,14.9175 C38.466,15.3958333 38.7156667,15.7971667 39.033,16.1215 C39.3503333,16.4458333 39.7236667,16.6908333 40.153,16.8565 C40.5823333,17.0221667 41.0466667,17.105 41.546,17.105 Z M43.016,12.583 L39.768,12.583 C39.8473333,12.0603333 40.0293333,11.6566667 40.314,11.372 C40.5986667,11.0873333 40.993,10.945 41.497,10.945 C41.7536667,10.945 41.9776667,10.9881667 42.169,11.0745 C42.3603333,11.1608333 42.519,11.2786667 42.645,11.428 C42.771,11.5773333 42.8643333,11.7511667 42.925,11.9495 C42.9856667,12.1478333 43.016,12.359 43.016,12.583 L43.016,12.583 Z M47.706,17 L47.706,12.527 C47.8833333,12.1443333 48.1003333,11.8538333 48.357,11.6555 C48.6136667,11.4571667 48.9216667,11.358 49.281,11.358 C49.4816667,11.358 49.6426667,11.3743333 49.764,11.407 C49.8853333,11.4396667 49.981,11.456 50.051,11.456 C50.1303333,11.456 50.1933333,11.4385 50.24,11.4035 C50.2866667,11.3685 50.317,11.309 50.331,11.225 L50.331,11.225 L50.555,9.93 C50.3216667,9.76666667 50.0276667,9.685 49.673,9.685 C49.2436667,9.685 48.8563333,9.81333333 48.511,10.07 C48.1656667,10.3266667 47.8646667,10.6766667 47.608,11.12 L47.608,11.12 L47.503,10.252 C47.4796667,10.0933333 47.433,9.98133333 47.363,9.916 C47.293,9.85066667 47.1693333,9.818 46.992,9.818 L46.992,9.818 L45.977,9.818 L45.977,17 L47.706,17 Z" id="Other" fill="#212121" fill-rule="nonzero"></path>
        </g>
    </g>
</svg>