<?xml version="1.0" encoding="UTF-8"?>
<svg width="16px" height="16px" viewBox="0 0 16 16" version="1.1" xmlns="http://www.w3.org/2000/svg" xmlns:xlink="http://www.w3.org/1999/xlink">
    <!-- Generator: sketchtool 61.2 (101010) - https://sketch.com -->
    <title>A50DD8D5-AC5E-41E3-962F-21ADAEDFBADB</title>
    <desc>Created with sketchtool.</desc>
    <g id="janvier-20" stroke="none" stroke-width="1" fill="none" fill-rule="evenodd">
        <g id="PROJETS_0" transform="translate(-168.000000, -269.000000)" fill="currentColor">
            <g id="APPLICATION-1" transform="translate(150.000000, 155.000000)">
                <path d="M25.2,116.464 L25.2,114 C21.2,114.4 18,117.848 18,122 C18,126.152 21.2,129.6 25.2,130 L25.2,127.536 C22.8,127.152 20.4,124.816 20.4,122 C20.4,119.184 22.8,116.848 25.2,116.464 L25.2,116.464 Z M31.576,121.2 L34,121.2 C33.624,117.2 30.8,114.376 26.8,114 L26.8,116.464 C29.2,116.808 31.232,118.8 31.576,121.2 Z M26.8,127.536 L26.8,130 C30.8,129.624 33.624,126.8 34,122.8 L31.576,122.8 C31.232,125.2 29.2,127.192 26.8,127.536 Z" id="Shape-1"></path>
            </g>
        </g>
    </g>
</svg>