<?xml version="1.0" encoding="UTF-8"?>
<svg width="115px" height="86px" viewBox="0 0 115 86" version="1.1" xmlns="http://www.w3.org/2000/svg" xmlns:xlink="http://www.w3.org/1999/xlink">
    <!-- Generator: Sketch 54.1 (76490) - https://sketchapp.com -->
    <title>Group 6</title>
    86<desc>Created with Sketch.</desc>
    <g id="logo" stroke="none" stroke-width="1" fill="none" fill-rule="evenodd">
        <g id="Group-6" transform="translate(-30.000000, -45.000000)">
            <rect id="Rectangle-Copy-10" x="0" y="0" width="175" height="175"></rect>
            <g id="Group" transform="translate(29.000000, 43.000000)" fill="#FFFFFF" fill-rule="nonzero">
                <g id="Group-5">
                    <path d="M9.0290732,87.1322358 C7.43147382,88.7298351 4.84125345,88.7298351 3.24365408,87.1322358 C1.6460547,85.5346364 1.6460547,82.944416 3.24365408,81.3468166 L81.3468122,3.24365854 C82.9444116,1.64605917 85.5346319,1.64605917 87.1322313,3.24365854 C88.7298307,4.84125792 88.7298307,7.43147829 87.1322313,9.02907766 L9.0290732,87.1322358 Z" id="Path-5-Copy-13" transform="translate(45.187943, 45.187947) rotate(1.000000) translate(-45.187943, -45.187947) "></path>
                    <path d="M38.2699859,85.7057255 C36.6964298,87.3270116 34.1064984,87.3657044 32.4852123,85.7921483 C30.8639262,84.2185922 30.8252334,81.6286609 32.3987895,80.0073747 L106.86036,3.28719273 C108.433916,1.6659066 111.023847,1.62721378 112.645133,3.20076989 C114.26642,4.774326 114.305112,7.36425735 112.731556,8.98554348 L38.2699859,85.7057255 Z" id="Path-5-Copy-14" transform="translate(72.565173, 44.496459) rotate(2.000000) translate(-72.565173, -44.496459) "></path>
                    <path d="M15.1109702,53.5162305 C13.4838457,55.0837488 10.8940761,55.0354284 9.32655783,53.408304 C7.75903956,51.7811795 7.80735991,49.1914099 9.43448436,47.6238916 L55.5578052,3.19019866 C57.1849296,1.62268039 59.7746992,1.67100074 61.3422175,3.29812519 C62.9097358,4.92524964 62.8614154,7.51501927 61.234291,9.08253754 L15.1109702,53.5162305 Z" id="Path-5-Copy-15"></path>
                    <path d="M64.2679515,86.178391 C62.6767875,87.7824 60.0865881,87.7928129 58.4825791,86.2016489 C56.8785702,84.6104849 56.8681573,82.0202855 58.4593212,80.4162765 L102.537188,35.9825836 C104.128351,34.3785746 106.718551,34.3681617 108.32256,35.9593257 C109.926569,37.5504897 109.936982,40.1406891 108.345818,41.7446981 L64.2679515,86.178391 Z" id="Path-5-Copy-16" transform="translate(83.402569, 61.080487) rotate(1.000000) translate(-83.402569, -61.080487) "></path>
                </g>
            </g>
        </g>
    </g>
</svg>
