<?xml version="1.0" encoding="UTF-8"?>
<svg width="17px" height="14px" viewBox="0 0 17 14" version="1.1" xmlns="http://www.w3.org/2000/svg" xmlns:xlink="http://www.w3.org/1999/xlink">
    <!-- Generator: sketchtool 61.2 (101010) - https://sketch.com -->
    <title>D3EE84E0-5358-45FA-9187-BCB774ADF93D</title>
    <desc>Created with sketchtool.</desc>
    <g id="janvier-20" stroke="none" stroke-width="1" fill="none" fill-rule="evenodd">
        <g id="HOME-PROJETS_" transform="translate(-483.000000, -17.000000)" fill="#FFFFFF">
            <g id="header">
                <g id="Group-4">
                    <g transform="translate(482.000000, 17.000000)">
                        <path d="M9.27971525,5.93943424 L2.63384143,2.91456001 C2.18144126,2.70864976 1.98162172,2.17498372 2.18753197,1.72258356 C2.3102045,1.45306288 2.55760858,1.26113332 2.84916309,1.20930757 L9.49490911,0.0279821564 C9.59903947,0.0094722935 9.70561739,0.00946139419 9.80975154,0.0279499587 L16.463579,1.20930803 C16.9529815,1.29619932 17.2792814,1.76337777 17.1923901,2.25278031 C17.1405877,2.54454979 16.9484797,2.7921217 16.6787152,2.91475948 L10.0250156,5.93960105 C9.78823005,6.04724622 9.51645255,6.04718539 9.27971525,5.93943424 Z" id="Path-8-Copy"></path>
                        <path d="M2.49941635,9.14430809 L2.49941635,9.14430809 L2.49941635,9.14430809 L9.625,12.4065744 L16.814003,9.14430809 C17.2441965,9.22106811 17.530711,9.63203516 17.453951,10.0622287 C17.4082477,10.3183677 17.2395405,10.5356676 17.0027203,10.6434272 L10.0752085,13.7956328 C9.81215484,13.9153294 9.51017989,13.915366 9.24709717,13.7957334 L2.31123581,10.6417624 C1.91390071,10.4610807 1.73826845,9.99250545 1.91895017,9.59517035 C2.02653526,9.35858123 2.24356417,9.19000957 2.49941635,9.14430809 Z" id="Path-9"></path>
                        <path d="M2.49941635,6.51930809 L2.49941635,6.51930809 L2.49941635,6.51930809 L9.625,9.78157443 L16.814003,6.51930809 C17.2441965,6.59606811 17.530711,7.00703516 17.453951,7.43722869 C17.4082477,7.69336767 17.2395405,7.91066757 17.0027203,8.01842719 L10.0752085,11.1706328 C9.81215484,11.2903294 9.51017989,11.290366 9.24709717,11.1707334 L2.31123581,8.01676239 C1.91390071,7.83608067 1.73826845,7.36750545 1.91895017,6.97017035 C2.02653526,6.73358123 2.24356417,6.56500957 2.49941635,6.51930809 Z" id="Path-9-Copy"></path>
                        <path d="M2.49941635,3.89151338 L2.49941635,3.89151338 L2.49941635,3.89151338 L9.625,7.15377972 L16.814003,3.89151338 C17.2441965,3.9682734 17.530711,4.37924045 17.453951,4.80943398 C17.4082477,5.06557296 17.2395405,5.28287285 17.0027203,5.39063248 L10.0752085,8.54283811 C9.81215484,8.66253465 9.51017989,8.66257133 9.24709717,8.54293871 L2.31123581,5.38896768 C1.91390071,5.20828595 1.73826845,4.73971074 1.91895017,4.34237564 C2.02653526,4.10578652 2.24356417,3.93721486 2.49941635,3.89151338 Z" id="Path-9-Copy-2"></path>
                    </g>
                </g>
            </g>
        </g>
    </g>
</svg>