<?xml version="1.0" encoding="UTF-8"?>
<svg width="30px" height="30px" viewBox="0 0 30 30" version="1.1" xmlns="http://www.w3.org/2000/svg" xmlns:xlink="http://www.w3.org/1999/xlink">
    <!-- Generator: Sketch 61.2 (89653) - https://sketch.com -->
    <title>Group 10</title>
    <desc>Created with Sketch.</desc>
    <g id="janvier-20" stroke="none" stroke-width="1" fill="none" fill-rule="evenodd">
        <g id="HOME-PROJETS_-Copy" transform="translate(-529.000000, -388.000000)">
            <g id="Group-10" transform="translate(530.000000, 389.000000)">
                <circle id="Oval-Copy-4" stroke="#006AAC" fill="#F3F5F6" cx="14" cy="14" r="14"></circle>
                <path d="M7.77777778,16.6666667 L6,16.6666667 L6,20.2222222 C6,21.2 6.8,22 7.77777778,22 L11.3333333,22 L11.3333333,20.2222222 L7.77777778,20.2222222 L7.77777778,16.6666667 Z M7.77777778,7.77777778 L11.3333333,7.77777778 L11.3333333,6 L7.77777778,6 C6.8,6 6,6.8 6,7.77777778 L6,11.3333333 L7.77777778,11.3333333 L7.77777778,7.77777778 Z M20.2222222,6 L16.6666667,6 L16.6666667,7.77777778 L20.2222222,7.77777778 L20.2222222,11.3333333 L22,11.3333333 L22,7.77777778 C22,6.8 21.2,6 20.2222222,6 Z M20.2222222,20.2222222 L16.6666667,20.2222222 L16.6666667,22 L20.2222222,22 C21.2,22 22,21.2 22,20.2222222 L22,16.6666667 L20.2222222,16.6666667 L20.2222222,20.2222222 Z M14,10.4444444 C12.0355556,10.4444444 10.4444444,12.0355556 10.4444444,14 C10.4444444,15.9644444 12.0355556,17.5555556 14,17.5555556 C15.9644444,17.5555556 17.5555556,15.9644444 17.5555556,14 C17.5555556,12.0355556 15.9644444,10.4444444 14,10.4444444 Z M14,15.7777778 C13.0222222,15.7777778 12.2222222,14.9777778 12.2222222,14 C12.2222222,13.0222222 13.0222222,12.2222222 14,12.2222222 C14.9777778,12.2222222 15.7777778,13.0222222 15.7777778,14 C15.7777778,14.9777778 14.9777778,15.7777778 14,15.7777778 Z" id="Shape" fill="#006AAC"></path>
            </g>
        </g>
    </g>
</svg>