<?xml version="1.0" encoding="UTF-8" standalone="no"?>
<svg
   xmlns:dc="http://purl.org/dc/elements/1.1/"
   xmlns:cc="http://creativecommons.org/ns#"
   xmlns:rdf="http://www.w3.org/1999/02/22-rdf-syntax-ns#"
   xmlns:svg="http://www.w3.org/2000/svg"
   xmlns="http://www.w3.org/2000/svg"
   xmlns:sodipodi="http://sodipodi.sourceforge.net/DTD/sodipodi-0.dtd"
   xmlns:inkscape="http://www.inkscape.org/namespaces/inkscape"
   width="50mm"
   height="50mm"
   viewBox="0 0 49.999997 50"
   version="1.1"
   id="svg8"
   inkscape:version="1.0.2-2 (e86c870879, 2021-01-15)"
   sodipodi:docname="graph-app-saml_v_2.svg">
  <defs
     id="defs9" />
  <sodipodi:namedview
     id="base"
     pagecolor="#ffffff"
     bordercolor="#666666"
     borderopacity="1.0"
     inkscape:pageopacity="0.0"
     inkscape:pageshadow="2"
     inkscape:zoom="4.8529895"
     inkscape:cx="124.58189"
     inkscape:cy="86.477743"
     inkscape:document-units="mm"
     inkscape:current-layer="layer1"
     inkscape:document-rotation="0"
     showgrid="false"
     units="mm"
     width="50mm"
     inkscape:window-width="1920"
     inkscape:window-height="1017"
     inkscape:window-x="-8"
     inkscape:window-y="391"
     inkscape:window-maximized="1" />
  <metadata
     id="metadata5">
    <rdf:RDF>
      <cc:Work
         rdf:about="">
        <dc:format>image/svg+xml</dc:format>
        <dc:type
           rdf:resource="http://purl.org/dc/dcmitype/StillImage" />
        <dc:title />
      </cc:Work>
    </rdf:RDF>
  </metadata>
  <g
     inkscape:label="Layer 1"
     inkscape:groupmode="layer"
     id="layer1">
    <g
       id="g849"
       style="stroke:#006aac;stroke-width:4.22;stroke-miterlimit:4;stroke-dasharray:none;stroke-opacity:1">
      <ellipse
         style="fill:#f3f5f6;fill-opacity:1;stroke:#006aac;stroke-width:4.22;stroke-linecap:butt;stroke-linejoin:round;stroke-miterlimit:4;stroke-dasharray:60, 5, 27, 5, 27, 5;stroke-dashoffset:18.0353;stroke-opacity:1;paint-order:stroke fill markers"
         id="path835"
         cx="-10.407919"
         cy="-33.656731"
         rx="21.241642"
         ry="21.241022"
         transform="rotate(152.10334)" />
    </g>
    <path
       d="m 33.592459,22.058611 c 0.950757,0 1.842485,0.180624 2.675184,0.541874 0.832697,0.361249 1.558639,0.849372 2.177197,1.464995 0.618558,0.615624 1.109007,1.337496 1.471979,2.166869 0.362971,0.829372 0.543828,1.716244 0.543828,2.662492 0,0.946247 -0.181485,1.833744 -0.544456,2.662492 -0.362972,0.828748 -0.853421,1.551246 -1.471979,2.166868 -0.618558,0.615624 -1.343872,1.103748 -2.177197,1.464996 -0.833326,0.361249 -1.725055,0.541874 -2.675184,0.541874 h -7.849717 c -0.950757,0 -1.842485,-0.180625 -2.675183,-0.541874 -0.832698,-0.361248 -1.55864,-0.849372 -2.177198,-1.464996 -0.618557,-0.615622 -1.109007,-1.337495 -1.471979,-2.166868 -0.362971,-0.829372 -0.544456,-1.716869 -0.544456,-2.662492 0,-0.945622 0.181485,-1.833745 0.544456,-2.662492 0.362972,-0.828748 0.853422,-1.551245 1.471979,-2.166869 0.618558,-0.615623 1.343872,-1.103746 2.177198,-1.464995 0.833325,-0.36125 1.725054,-0.541874 2.675183,-0.541874 h 0.981529 v 1.953119 c -0.776808,0 -1.520333,0.08875 -2.230575,0.266875 -0.710243,0.178124 -1.336336,0.463123 -1.878281,0.854372 -0.541945,0.391249 -0.973365,0.894998 -1.295517,1.51062 -0.322152,0.615624 -0.482915,1.365622 -0.482915,2.250619 0,0.671247 0.13062,1.301872 0.39123,1.89187 0.260611,0.589998 0.613534,1.106246 1.058142,1.548745 0.444608,0.442498 0.963317,0.793748 1.556127,1.053121 0.592811,0.259375 1.226441,0.389375 1.900888,0.389375 h 7.849717 c 0.674447,0 1.308076,-0.13 1.900887,-0.389375 0.59281,-0.259373 1.11152,-0.610623 1.556128,-1.053121 0.444608,-0.442499 0.797531,-0.958747 1.058142,-1.548745 0.26061,-0.589998 0.39123,-1.220623 0.39123,-1.89187 0,-0.884997 -0.160763,-1.634995 -0.482915,-2.250619 -0.322152,-0.615622 -0.753573,-1.118746 -1.295517,-1.51062 C 36.17847,24.741103 35.552376,24.456729 34.842134,24.278605 34.131891,24.10048 33.388367,24.01173 32.611558,24.01173 v -1.953119 z"
       class="msportalfx-svg-c14"
       fill="#7fba00"
       id="path7"
       style="stroke-width:0.626486" />
    <path
       d="m 22.994298,30.192008 v -2.053791 c 0.801321,0 1.568309,-0.09333 2.300965,-0.280631 0.732655,-0.187305 1.378505,-0.486994 1.937552,-0.89841 0.559046,-0.411415 1.00408,-0.94113 1.336398,-1.588485 0.332318,-0.647355 0.498154,-1.43601 0.498154,-2.366625 0,-0.705847 -0.134741,-1.368976 -0.403575,-1.989385 -0.268835,-0.62041 -0.632895,-1.163268 -1.091533,-1.628575 C 27.11362,18.920799 26.578543,18.551445 25.967025,18.278702 25.355508,18.005958 24.702532,17.869257 24.0068,17.869257 h -8.097424 c -0.695731,0 -1.349354,0.136701 -1.960872,0.409445 -0.611519,0.272743 -1.146595,0.642097 -1.605234,1.107404 -0.458638,0.465307 -0.822698,1.008165 -1.091532,1.628575 -0.268835,0.620409 -0.403577,1.283538 -0.403577,1.989385 0,0.930615 0.165835,1.71927 0.498155,2.366625 0.332317,0.647355 0.777351,1.176412 1.336399,1.588485 0.559045,0.412073 1.204896,0.711105 1.937551,0.89841 0.732655,0.187306 1.499643,0.280631 2.300963,0.280631 v 2.053791 h -1.0125 c -0.980761,0 -1.900628,-0.189934 -2.759603,-0.569803 C 12.290151,29.242336 11.541301,28.729052 10.903224,28.082354 10.265147,27.435656 9.7592203,26.675917 9.3847956,25.803795 9.0103716,24.931673 8.8238062,23.99843 8.8238062,23.004066 c 0,-0.994364 0.1872124,-1.928264 0.5616374,-2.799729 0.3744237,-0.871465 0.8803504,-1.631204 1.5184274,-2.278559 0.638078,-0.647355 1.38628,-1.160638 2.245903,-1.540508 0.859622,-0.37987 1.779489,-0.569804 2.759602,-0.569804 H 24.0068 c 0.980761,0 1.900628,0.189934 2.759603,0.569804 0.858974,0.37987 1.607824,0.893153 2.245902,1.540508 0.638077,0.647355 1.144004,1.406437 1.518428,2.278559 0.374426,0.872122 0.561638,1.805365 0.561638,2.799729 0,0.994364 -0.187212,1.928264 -0.561638,2.799729 -0.374424,0.871465 -0.880351,1.631204 -1.518428,2.278559 -0.638078,0.647355 -1.386279,1.160638 -2.245902,1.540508 -0.859623,0.379869 -1.77949,0.569804 -2.759603,0.569804 h -1.012502 z"
       class="msportalfx-svg-c15"
       fill="#59b4d9"
       id="path9"
       style="stroke-width:0.652487" />
  </g>
</svg>
