<?xml version="1.0" encoding="UTF-8"?>
<svg width="30px" height="30px" viewBox="0 0 30 30" version="1.1" xmlns="http://www.w3.org/2000/svg" xmlns:xlink="http://www.w3.org/1999/xlink">
    <!-- Generator: Sketch 61.2 (89653) - https://sketch.com -->
    <title>Group 9 Copy</title>
    <desc>Created with Sketch.</desc>
    <g id="janvier-20" stroke="none" stroke-width="1" fill="none" fill-rule="evenodd">
        <g id="HOME-PROJETS_-test-Copy" transform="translate(-744.000000, -412.000000)">
            <g id="Group-9-Copy" transform="translate(745.000000, 413.000000)">
                <circle id="Oval" stroke="#DD2C00" fill="#F3F5F6" cx="14" cy="14" r="14"></circle>
                <g id="Group" transform="translate(8.000000, 8.000000)" fill="#DD2C00" fill-rule="nonzero">
                    <path d="M6,6.83739426 C9.17695156,6.83739426 11.5970116,8.8025752 11.722183,11.7582033 L11.7272727,12 L10.0909091,12 C10.0909091,9.88274441 8.41572746,8.47375789 6,8.47375789 C3.66479679,8.47375789 2.02159251,9.79037752 1.91464023,11.7906613 C1.91360153,11.8298445 1.91282251,11.8592319 1.91230315,11.8788235 C1.91158932,11.9057516 1.91051857,11.9461438 1.90909091,12 L0.272727273,12 C0.272727273,11.960392 0.273132256,11.9209511 0.273938712,11.8816796 C0.336042744,8.85743335 2.77901125,6.83739426 6,6.83739426 Z" id="Path"></path>
                    <path d="M6,0 C8.10872359,0 9.81818182,1.70945823 9.81818182,3.81818182 C9.81818182,5.92690541 8.10872359,7.63636364 6,7.63636364 C3.89127641,7.63636364 2.18181818,5.92690541 2.18181818,3.81818182 C2.18181818,1.70945823 3.89127641,0 6,0 Z M6,1.63636364 C4.79501509,1.63636364 3.81818182,2.61319691 3.81818182,3.81818182 C3.81818182,5.02316673 4.79501509,6 6,6 C7.20498491,6 8.18181818,5.02316673 8.18181818,3.81818182 C8.18181818,2.61319691 7.20498491,1.63636364 6,1.63636364 Z" id="Oval"></path>
                </g>
            </g>
        </g>
    </g>
</svg>