<?xml version="1.0" encoding="UTF-8" standalone="no"?>
<svg xmlns:dc="http://purl.org/dc/elements/1.1/"
   xmlns:cc="http://creativecommons.org/ns#"
   xmlns:rdf="http://www.w3.org/1999/02/22-rdf-syntax-ns#"
   xmlns:svg="http://www.w3.org/2000/svg"
   xmlns="http://www.w3.org/2000/svg"
   xmlns:sodipodi="http://sodipodi.sourceforge.net/DTD/sodipodi-0.dtd"
   xmlns:inkscape="http://www.inkscape.org/namespaces/inkscape" width="50mm" height="50mm" viewBox="0 0 49.999997 50" version="1.1" id="svg8" inkscape:version="1.0.2-2 (e86c870879, 2021-01-15)" sodipodi:docname="graph-app-swagger.svg">
   <defs id="defs9" />
   <sodipodi:namedview id="base" pagecolor="#ffffff" bordercolor="#666666" borderopacity="1.0" inkscape:pageopacity="0.0" inkscape:pageshadow="2" inkscape:zoom="4.2688559" inkscape:cx="154.00785" inkscape:cy="86.477743" inkscape:document-units="mm" inkscape:current-layer="layer1" inkscape:document-rotation="0" showgrid="false" units="mm" width="50mm" inkscape:window-width="1920" inkscape:window-height="1017" inkscape:window-x="-8" inkscape:window-y="391" inkscape:window-maximized="1" />
   <metadata id="metadata5">
      <rdf:RDF>
         <cc:Work rdf:about="">
            <dc:format>image/svg+xml</dc:format>
            <dc:type rdf:resource="http://purl.org/dc/dcmitype/StillImage" />
            <dc:title />
         </cc:Work>
      </rdf:RDF>
   </metadata>
   <g inkscape:label="Layer 1" inkscape:groupmode="layer" id="layer1">
      <g id="g849" style="stroke:#006aac;stroke-width:4.22;stroke-miterlimit:4;stroke-dasharray:none;stroke-opacity:1">
         <ellipse style="fill:#f3f5f6;fill-opacity:1;stroke:#006aac;stroke-width:4.22;stroke-linecap:butt;stroke-linejoin:round;stroke-miterlimit:4;stroke-dasharray:60, 5, 27, 5, 27, 5;stroke-dashoffset:18.0353;stroke-opacity:1;paint-order:stroke fill markers" id="path835" cx="-10.407919" cy="-33.656731" rx="21.241642" ry="21.241022" transform="rotate(152.10334)" />
      </g>
      <path fill="#006aac" stroke="#006aac" stroke-opacity="1" stroke-width="0.236" d="m 18.792946,14.654245 c -0.230424,-0.0062 -0.45955,0 -0.6961,0.0062 -1.601775,0.09853 -2.565046,0.864175 -2.833438,2.449126 -0.185055,1.111087 -0.153194,2.239632 -0.2304,3.356954 -0.02452,0.578643 -0.08211,1.157224 -0.191181,1.720867 -0.216917,1.013822 -0.643406,1.331813 -1.65815,1.382934 -0.136031,0.01382 -0.269616,0.04021 -0.397075,0.07106 v 2.429181 c 1.838303,0.09106 2.088313,0.754436 2.234152,2.708503 0.05885,0.71454 -0.0184,1.430324 0.02575,2.143611 0.0331,0.677122 0.121326,1.345523 0.254911,1.995217 0.421581,1.785716 2.138556,2.383035 4.207262,2.02514 v -2.136124 c -0.333314,0 -0.626251,0.0062 -0.906898,0 -0.709582,-0.02012 -0.97062,-0.20078 -1.03435,-0.88912 -0.09684,-0.889118 -0.06985,-1.791955 -0.121356,-2.688552 -0.109067,-1.669747 -0.287983,-3.305825 -1.888551,-4.364534 0.823559,-0.617292 1.422843,-1.351764 1.607898,-2.325674 0.133585,-0.682119 0.216898,-1.370467 0.268406,-2.058818 0.05126,-0.688347 -0.03088,-1.396652 0.02594,-2.078766 0.09437,-1.103601 0.165454,-1.557512 1.466968,-1.512624 0.197321,0 0.388465,-0.02639 0.606661,-0.04462 V 14.66817 c -0.261056,0 -0.503708,-0.0062 -0.740228,-0.01382 z m 12.409775,0.02011 c -0.447323,-0.01382 -0.893415,0.02012 -1.334611,0.09854 v 2.116173 c 0.403226,0 0.715715,0 1.020874,0.0062 0.537985,0.0062 0.946109,0.220698 0.996356,0.824272 0.05003,0.55244 0.05003,1.111087 0.101713,1.669747 0.109066,1.117322 0.166687,2.239626 0.357832,3.338246 0.166688,0.902832 0.779446,1.577466 1.538047,2.136126 -1.333383,0.909071 -1.729228,2.21469 -1.792958,3.682421 -0.03891,0.998853 -0.06374,2.013924 -0.113946,3.026495 -0.04508,0.92279 -0.364009,1.220822 -1.278237,1.240773 -0.25488,0.01382 -0.503709,0.03393 -0.784342,0.0509 v 2.169797 c 0.529462,0 1.020874,0.03393 1.513539,0 1.518438,-0.09105 2.444938,-0.844225 2.74397,-2.350611 0.127471,-0.824277 0.204671,-1.662269 0.224248,-2.50026 0.05003,-0.76691 0.04385,-1.540056 0.121357,-2.299482 0.113946,-1.188401 0.651981,-1.682216 1.818693,-1.759536 0.109067,-0.01382 0.216899,-0.04021 0.3272,-0.07106 v -2.435419 c -0.19732,-0.02639 -0.33214,-0.04587 -0.47919,-0.0509 -0.873807,-0.03959 -1.308876,-0.339156 -1.533148,-1.182167 -0.133585,-0.539934 -0.216899,-1.092379 -0.241417,-1.65104 -0.06374,-1.026289 -0.05743,-2.065045 -0.121295,-3.091335 -0.133586,-1.980253 -1.302744,-2.916761 -3.083449,-2.967889 z m -11.260219,8.773967 c -1.754969,0 -1.882422,2.629947 -0.140934,2.799544 h 0.09684 c 0.746355,0.04462 1.386082,-0.532456 1.430203,-1.293152 v -0.07604 C 21.342191,24.10553 20.735474,23.46207 19.97562,23.448353 Z m 4.755074,0 c -0.72674,-0.02513 -1.339509,0.55866 -1.366467,1.300637 0,0.04462 0,0.08352 0.0062,0.129704 0,0.83799 0.562503,1.370466 1.40569,1.370466 0.829687,0 1.352991,-0.552439 1.352991,-1.416604 -0.0062,-0.837991 -0.562504,-1.390417 -1.398335,-1.382933 z m 4.838418,0 c -0.764734,-0.01382 -1.403239,0.604786 -1.430203,1.390418 0,0.779385 0.618896,1.41037 1.392208,1.41037 h 0.01358 c 0.694878,0.123484 1.390979,-0.55866 1.436323,-1.376699 0.03829,-0.759427 -0.638504,-1.422838 -1.411818,-1.422838 z" id="path2" style="fill:#006aac;fill-opacity:1;stroke:#006aac;stroke-opacity:1;stroke-width:0.236;stroke-miterlimit:4;stroke-dasharray:none" />
   </g>
</svg>
