<?xml version="1.0" encoding="UTF-8" standalone="no"?>
<svg xmlns:dc="http://purl.org/dc/elements/1.1/"
   xmlns:cc="http://creativecommons.org/ns#"
   xmlns:rdf="http://www.w3.org/1999/02/22-rdf-syntax-ns#"
   xmlns:svg="http://www.w3.org/2000/svg"
   xmlns="http://www.w3.org/2000/svg"
   xmlns:sodipodi="http://sodipodi.sourceforge.net/DTD/sodipodi-0.dtd"
   xmlns:inkscape="http://www.inkscape.org/namespaces/inkscape" width="50mm" height="50mm" viewBox="0 0 49.999997 50" version="1.1" id="svg8" inkscape:version="1.0.2-2 (e86c870879, 2021-01-15)" sodipodi:docname="graph-app-service2.svg">
   <defs id="defs9" />
   <sodipodi:namedview id="base" pagecolor="#ffffff" bordercolor="#666666" borderopacity="1.0" inkscape:pageopacity="0.0" inkscape:pageshadow="2" inkscape:zoom="5.3104172" inkscape:cx="174.60194" inkscape:cy="91.779654" inkscape:document-units="mm" inkscape:current-layer="layer1" inkscape:document-rotation="0" showgrid="false" units="mm" width="50mm" inkscape:window-width="2400" inkscape:window-height="1271" inkscape:window-x="2391" inkscape:window-y="-3" inkscape:window-maximized="1" />
   <metadata id="metadata5">
      <rdf:RDF>
         <cc:Work rdf:about="">
            <dc:format>image/svg+xml</dc:format>
            <dc:type rdf:resource="http://purl.org/dc/dcmitype/StillImage" />
            <dc:title></dc:title>
         </cc:Work>
      </rdf:RDF>
   </metadata>
   <g inkscape:label="Layer 1" inkscape:groupmode="layer" id="layer1">
      <g id="g849" style="stroke:#006aac;stroke-width:4.22;stroke-miterlimit:4;stroke-dasharray:none;stroke-opacity:1">
         <ellipse style="fill:#f3f5f6;fill-opacity:1;stroke:#006aac;stroke-width:4.22;stroke-linecap:butt;stroke-linejoin:round;stroke-miterlimit:4;stroke-dasharray:60, 5, 27, 5, 27, 5;stroke-dashoffset:18.0353;stroke-opacity:1;paint-order:stroke fill markers" id="path835" cx="-10.407919" cy="-33.656731" rx="21.241642" ry="21.241022" transform="rotate(152.10334)" />
      </g>
      <path d="m 33.925567,26.255611 c 0.04901,-0.359373 0.07387,-0.730708 0.07387,-1.126075 0,-0.383293 -0.02482,-0.766702 -0.08625,-1.126075 l 2.5,-1.892707 c 0.221653,-0.167784 0.283253,-0.491161 0.147767,-0.730705 l -2.364521,-3.977003 c -0.147771,-0.263462 -0.45565,-0.347412 -0.7266,-0.263462 l -2.943356,1.149993 C 29.91071,17.83441 29.258007,17.451 28.5314,17.163504 l -0.443353,-3.042691 c -0.04899,-0.287498 -0.295598,-0.491162 -0.591135,-0.491162 h -4.729068 c -0.295599,0 -0.529535,0.203664 -0.578792,0.491163 l -0.443363,3.04269 c -0.726601,0.287496 -1.391625,0.682751 -1.995072,1.126073 l -2.943355,-1.149993 c -0.270909,-0.09545 -0.578789,0 -0.7266,0.263463 l -2.352214,3.977071 c -0.147769,0.251504 -0.09851,0.563037 0.147767,0.730705 l 2.500001,1.892707 c -0.0616,0.359373 -0.110849,0.754627 -0.110849,1.126075 0,0.371332 0.02481,0.766702 0.08623,1.126075 l -2.500001,1.892695 c -0.221653,0.167784 -0.283252,0.491163 -0.147767,0.730705 l 2.364529,3.97706 c 0.147766,0.263578 0.455646,0.347413 0.7266,0.263578 l 2.943353,-1.149993 c 0.615761,0.455167 1.268471,0.838577 1.995072,1.126073 l 0.443366,3.04269 c 0.0616,0.287499 0.295596,0.491163 0.591134,0.491163 h 4.729063 c 0.295595,0 0.541877,-0.203664 0.578788,-0.491163 l 0.443359,-3.04269 c 0.726603,-0.287496 1.391631,-0.670791 1.995081,-1.126074 l 2.943347,1.149994 c 0.270969,0.09545 0.57885,0 0.7266,-0.263578 l 2.364535,-3.97706 c 0.147768,-0.263462 0.08623,-0.563036 -0.147769,-0.730705 z m -8.793107,3.186438 c -2.438423,0 -4.433498,-1.940615 -4.433498,-4.312479 0,-2.371852 1.995075,-4.312478 4.433498,-4.312478 2.438424,0 4.433503,1.940626 4.433503,4.312478 0,2.371864 -1.995079,4.312479 -4.433503,4.312479 z" id="path4" style="fill:#006aac;fill-opacity:1;stroke-width:1.2146" />
   </g>
</svg>
