<?xml version="1.0" encoding="UTF-8"?>
<svg width="30px" height="30px" viewBox="0 0 30 30" version="1.1" xmlns="http://www.w3.org/2000/svg" xmlns:xlink="http://www.w3.org/1999/xlink">
    <!-- Generator: Sketch 61.2 (89653) - https://sketch.com -->
    <title>Group 8</title>
    <desc>Created with Sketch.</desc>
    <g id="janvier-20" stroke="none" stroke-width="1" fill="none" fill-rule="evenodd">
        <g id="HOME-PROJETS_-test-Copy" transform="translate(-949.000000, -348.000000)">
            <g id="Group-8" transform="translate(950.000000, 349.000000)">
                <circle id="Oval" stroke="#006AAC" fill="#F3F5F6" cx="14" cy="14" r="14"></circle>
                <path d="M13.2,8.464 L13.2,6 C9.2,6.4 6,9.848 6,14 C6,18.152 9.2,21.6 13.2,22 L13.2,19.536 C10.8,19.152 8.4,16.816 8.4,14 C8.4,11.184 10.8,8.848 13.2,8.464 L13.2,8.464 Z M19.576,13.2 L22,13.2 C21.624,9.2 18.8,6.376 14.8,6 L14.8,8.464 C17.2,8.808 19.232,10.8 19.576,13.2 Z M14.8,19.536 L14.8,22 C18.8,21.624 21.624,18.8 22,14.8 L19.576,14.8 C19.232,17.2 17.2,19.192 14.8,19.536 Z" id="Shape" fill="#0069A7"></path>
            </g>
        </g>
    </g>
</svg>