<?xml version="1.0" encoding="UTF-8"?>
<svg width="19px" height="16px" viewBox="0 0 19 16" version="1.1" xmlns="http://www.w3.org/2000/svg" xmlns:xlink="http://www.w3.org/1999/xlink">
    <!-- Generator: sketchtool 61.2 (101010) - https://sketch.com -->
    <title>AA95CD1D-492C-4A76-BD93-972A86F3DADA</title>
    <desc>Created with sketchtool.</desc>
    <g id="janvier-20" stroke="none" stroke-width="1" fill="none" fill-rule="evenodd">
        <g id="PROJETS_0" transform="translate(-167.000000, -316.000000)" fill="currentColor" fill-rule="nonzero">
            <g id="Group" transform="translate(167.000000, 316.000000)">
                <path d="M5.5,11.2676114 C8.41220559,11.2676114 10.6305939,13.0690273 10.7453344,15.778353 L10.75,16 L9.25,16 C9.25,14.0591824 7.71441684,12.7676114 5.5,12.7676114 C3.35939705,12.7676114 1.85312647,13.9745127 1.75508688,15.8081062 C1.75413474,15.8440241 1.75342063,15.8709626 1.75294456,15.8889216 C1.75229021,15.9136057 1.75130869,15.9506318 1.75,16 L0.25,16 C0.25,15.9636927 0.250371234,15.9275385 0.251110486,15.8915396 C0.308039182,13.1193139 2.54742698,11.2676114 5.5,11.2676114 Z" id="Path"></path>
                <path d="M12.5,9.2323886 C14.8355185,9.2323886 16.6378735,10.6430085 16.7449625,12.7799439 C16.746344,12.8354631 16.7473801,12.8771025 16.7480709,12.9048621 C16.748225,12.9110564 16.7485186,13.1183571 16.7489515,13.5267642 L17.5200961,13.5267642 L17.5200961,1.55087422 L0.25,1.55087422 L0.25,2.66453526e-15 L19,2.66453526e-15 L19,14.9988262 L15.25,14.9988262 C15.25,14.9685236 15.2494373,12.9220074 15.2483185,12.8921579 C15.1997494,11.5963119 14.1031588,10.7323886 12.5,10.7323886 C10.9255164,10.7323886 9.83964131,11.5656829 9.75529048,12.8230399 L9.75,12.9823886 L8.25,12.9823886 C8.25,10.7325498 10.0914966,9.2323886 12.5,9.2323886 Z" id="Path-Copy"></path>
                <path d="M5.5,5 C7.43299662,5 9,6.56700338 9,8.5 C9,10.4329966 7.43299662,12 5.5,12 C3.56700338,12 2,10.4329966 2,8.5 C2,6.56700338 3.56700338,5 5.5,5 Z M5.5,6.5 C4.3954305,6.5 3.5,7.3954305 3.5,8.5 C3.5,9.6045695 4.3954305,10.5 5.5,10.5 C6.6045695,10.5 7.5,9.6045695 7.5,8.5 C7.5,7.3954305 6.6045695,6.5 5.5,6.5 Z" id="Oval"></path>
                <path d="M12.5,5 C13.8807119,5 15,6.11928813 15,7.5 C15,8.88071187 13.8807119,10 12.5,10 C11.1192881,10 10,8.88071187 10,7.5 C10,6.11928813 11.1192881,5 12.5,5 Z M12.5,6.5 C11.9477153,6.5 11.5,6.94771525 11.5,7.5 C11.5,8.05228475 11.9477153,8.5 12.5,8.5 C13.0522847,8.5 13.5,8.05228475 13.5,7.5 C13.5,6.94771525 13.0522847,6.5 12.5,6.5 Z" id="Oval-Copy"></path>
            </g>
        </g>
    </g>
</svg>