<?xml version="1.0" encoding="UTF-8"?>
<svg width="18px" height="17px" viewBox="0 0 18 17" version="1.1" xmlns="http://www.w3.org/2000/svg" xmlns:xlink="http://www.w3.org/1999/xlink">
    <!-- Generator: sketchtool 61.2 (101010) - https://sketch.com -->
    <title>5A4B75FD-1FFD-4CDF-9B8C-8A039EDF6ABA</title>
    <desc>Created with sketchtool.</desc>
    <g id="janvier-20" stroke="none" stroke-width="1" fill="none" fill-rule="evenodd">
        <g id="HOME-PROJETS_" transform="translate(-165.000000, -90.000000)" fill="currentColor">
            <g id="Group-3" transform="translate(165.000000, 90.000000)">
                <polygon id="Rectangle-Copy" points="8.99516125 2.31396648e-13 18.0038069 10.0106618 15.0056591 10.0106618 14.9951613 16.0165458 9.99516125 16.0165458 10.0110185 14.0165458 13.0315939 14.0165458 13.0364181 8.00827288 14.0159502 8.00827288 8.99516125 2.52891845 4.02848472 8.01654576 5.01120084 8.01654576 5.01120084 14.0165458 6.00220181 14.0165458 6.00220181 11.0044203 11.9964737 11.0044203 11.9964737 14.0165458 10.0110185 14.0165458 10.0110185 13.0029755 7.99516125 13.0029755 7.99516125 14.0165458 7.99516125 16.0165458 2.99516125 16.0165458 2.99516125 10.0106618 1.6690878e-13 10.0106618"></polygon>
                <polygon id="Path-2" points="4.01584501 15.0165276 4.01584501 8.969434 2.01153525 8.969434 9.00190344 1.27896713 16.0346027 8.969434 14.0593662 8.969434 14.0593662 15.0165276 10.9977026 15.0165276 10.9977026 12.0577591 7.03932484 12.0577591 7.03932484 15.0165276"></polygon>
            </g>
        </g>
    </g>
</svg>