<?xml version="1.0" encoding="UTF-8"?>
<svg width="22px" height="22px" viewBox="0 0 22 22" version="1.1" xmlns="http://www.w3.org/2000/svg" xmlns:xlink="http://www.w3.org/1999/xlink">
    <!-- Generator: Sketch 58 (84663) - https://sketch.com -->
    <title>Group 9</title>
    <desc>Created with Sketch.</desc>
    <g id="Page-1" stroke="none" stroke-width="1" fill="none" fill-rule="evenodd">
        <g id="groups-app-copy-3" transform="translate(-703.000000, -261.000000)" fill="currentColor" fill-rule="nonzero">
            <g id="Group-9" transform="translate(703.000000, 261.000000)">
                <path d="M11,22 C17.0751322,22 22,17.0751322 22,11 C22,4.92486775 17.0751322,0 11,0 C4.92486775,0 0,4.92486775 0,11 C0,17.0751322 4.92486775,22 11,22 Z M11,20 C6.02943725,20 2,15.9705627 2,11 C2,6.02943725 6.02943725,2 11,2 C15.9705627,2 20,6.02943725 20,11 C20,15.9705627 15.9705627,20 11,20 Z" id="Oval"></path>
                <path d="M7.694,15 L6.074,15 L6.074,6.324 L7.694,6.324 L7.694,15 Z M12.956,6.324 C13.6120033,6.324 14.2099973,6.43099893 14.75,6.645 C15.2900027,6.85900107 15.7519981,7.15699809 16.136,7.539 C16.5200019,7.92100191 16.8179989,8.37799734 17.03,8.91 C17.2420011,9.44200266 17.348,10.0259968 17.348,10.662 C17.348,11.2980032 17.2420011,11.8819973 17.03,12.414 C16.8179989,12.9460027 16.5200019,13.4039981 16.136,13.788 C15.7519981,14.1720019 15.2900027,14.4699989 14.75,14.682 C14.2099973,14.8940011 13.6120033,15 12.956,15 L9.644,15 L9.644,6.324 L12.956,6.324 Z M12.956,7.608 L11.27,7.608 L11.27,13.716 L12.956,13.716 C13.3800021,13.716 13.7609983,13.6460007 14.099,13.506 C14.4370017,13.3659993 14.7239988,13.1650013 14.96,12.903 C15.1960012,12.6409987 15.3779994,12.3210019 15.506,11.943 C15.6340006,11.5649981 15.698,11.1380024 15.698,10.662 C15.698,10.1859976 15.6340006,9.75900189 15.506,9.381 C15.3779994,9.00299811 15.1960012,8.68300131 14.96,8.421 C14.7239988,8.15899869 14.4370017,7.9580007 14.099,7.818 C13.7609983,7.6779993 13.3800021,7.608 12.956,7.608 L12.956,7.608 Z" id="ID"></path>
            </g>
        </g>
    </g>
</svg>