<?xml version="1.0" encoding="UTF-8" standalone="no"?>
<svg xmlns:dc="http://purl.org/dc/elements/1.1/"
   xmlns:cc="http://creativecommons.org/ns#"
   xmlns:rdf="http://www.w3.org/1999/02/22-rdf-syntax-ns#"
   xmlns:svg="http://www.w3.org/2000/svg"
   xmlns="http://www.w3.org/2000/svg" width="14.6115" height="14.6115" viewBox="0 0 14.6115 14.6115" version="1.1" id="svg4">

   <path fill="currentColor" stroke="none" stroke-width="0.75" d="m 3.67575,1.159019 c -0.141,-0.0038 -0.28125,0 -0.426,0.0038 -0.98025,0.05925 -1.56975,0.51975 -1.734,1.473 -0.11325,0.66825 -0.09375,1.347 -0.141,2.019 -0.015,0.348 -0.05025,0.696 -0.117,1.035 C 1.125,6.299569 0.864,6.490819 0.243,6.521569 0.15975,6.529869 0.078,6.545569 0,6.564319 v 1.461 c 1.125,0.05475 1.278,0.45375 1.36725,1.629 0.036,0.42975 -0.01125,0.86025 0.01575,1.28925 0.02025,0.40725 0.07425,0.80925 0.156,1.2 0.258,1.074 1.30875,1.43325 2.57475,1.218 v -1.28475 c -0.204,0 -0.38325,0.0038 -0.555,0 -0.43425,-0.012 -0.594,-0.12075 -0.633,-0.53475 -0.05925,-0.53475 -0.04275,-1.07775 -0.07425,-1.617 -0.06675,-1.00425 -0.17625,-1.98825 -1.15575,-2.625 0.504,-0.37125 0.87075,-0.813 0.984,-1.39875 0.08175,-0.41025 0.13275,-0.82425 0.16425,-1.23825 0.0315,-0.414 -0.01875,-0.84 0.01575,-1.25025 0.05775,-0.66375 0.10125,-0.93675 0.89775,-0.90975 0.12075,0 0.23775,-0.01575 0.37125,-0.027 v -1.30875 c -0.15975,0 -0.30825,-0.0038 -0.453,-0.0083 z m 7.5945,0.012 c -0.27375,-0.0083 -0.54675,0.012 -0.81675,0.05925 v 1.27275 c 0.24675,0 0.438,0 0.62475,0.0038 0.32925,0.0038 0.579,0.13275 0.60975,0.49575 0.03075,0.33225 0.03075,0.66825 0.06225,1.00425 0.06675,0.672 0.102,1.347 0.219,2.00775 0.102,0.543 0.477,0.94875 0.94125,1.28475 -0.816,0.54675 -1.05825,1.332 -1.09725,2.21475 -0.024,0.60075 -0.039,1.21125 -0.06975,1.82025 -0.02775,0.555 -0.22275,0.73425 -0.78225,0.74625 -0.156,0.0083 -0.30825,0.02025 -0.48,0.03075 v 1.305 c 0.324,0 0.62475,0.02025 0.92625,0 0.92925,-0.05475 1.49625,-0.50775 1.67925,-1.41375 0.078,-0.49575 0.12525,-0.99975 0.13725,-1.50375 0.03075,-0.46125 0.027,-0.92625 0.07425,-1.383 0.06975,-0.71475 0.399,-1.01175 1.113,-1.05825 0.06675,-0.0083 0.13275,-0.024 0.20025,-0.04275 v -1.46475 c -0.12075,-0.01575 -0.20325,-0.02775 -0.29325,-0.03075 -0.53475,-0.024 -0.801,-0.204 -0.93825,-0.711 -0.08175,-0.32475 -0.13275,-0.657 -0.14775,-0.993 -0.039,-0.61725 -0.03525,-1.242 -0.07425,-1.85925 -0.08175,-1.191 -0.79725,-1.75425 -1.887,-1.785 z m -6.891,5.277 c -1.074,0 -1.152,1.58175 -0.08625,1.68375 H 4.35225 C 4.809,8.158769 5.2005,7.811519 5.2275,7.354019 v -0.04575 c 0.00825,-0.465 -0.363,-0.852 -0.828,-0.86025 z m 2.91,0 c -0.44475,-0.015 -0.81975,0.336 -0.83625,0.78225 0,0.027 0,0.05025 0.0038,0.078 0,0.504 0.34425,0.82425 0.86025,0.82425 0.50775,0 0.828,-0.33225 0.828,-0.852 -0.0038,-0.504 -0.34425,-0.83625 -0.85575,-0.83175 z m 2.961,0 c -0.468,-0.0082 -0.85875,0.36375 -0.87525,0.83625 0,0.46875 0.37875,0.84825 0.852,0.84825 h 0.0082 c 0.42525,0.07425 0.85125,-0.336 0.879,-0.828 0.02325,-0.45675 -0.39075,-0.85575 -0.864,-0.85575 z" id="path2" />
</svg>
