<?xml version="1.0" encoding="UTF-8"?>
<svg width="223px" height="49px" viewBox="0 0 223 49" version="1.1" xmlns="http://www.w3.org/2000/svg" xmlns:xlink="http://www.w3.org/1999/xlink">
    <!-- Generator: Sketch 55.2 (78181) - https://sketchapp.com -->
    <title>INTACT_LOGO</title>
    <desc>Created with Sketch.</desc>
    <g id="Page-1" stroke="none" stroke-width="1" fill="none" fill-rule="evenodd">
        <g id="home-no-app" transform="translate(-150.000000, -246.000000)" fill="#FFFFFF">
            <g id="INTACT_LOGO" transform="translate(150.000000, 246.000000)">
                <path d="M10.824,48.12717 L7.10542736e-14,48.12717 L5.874,0.0461699585 L16.698,0.0461699585 L10.824,48.12717 Z M30.228,0.0461699585 C30.6900023,0.0461699585 31.0804984,0.0626697935 31.3995,0.0956699585 C31.7185016,0.128670123 32.0044987,0.205669353 32.2575,0.326669958 C32.5105013,0.447670563 32.735999,0.618168858 32.934,0.838169958 C33.132001,1.05817106 33.329999,1.3441682 33.528,1.69616996 L50.391,31.39617 C50.4350002,30.6261661 50.5009996,29.8891735 50.589,29.18517 C50.6770004,28.4811664 50.7539997,27.821173 50.82,27.20517 L54.054,0.0461699585 L63.558,0.0461699585 L57.618,48.12717 L52.008,48.12717 C51.1719958,48.12717 50.4790028,48.0061712 49.929,47.76417 C49.3789973,47.5221687 48.906002,47.0491735 48.51,46.34517 L31.713,16.67817 C31.6689998,17.294173 31.6195003,17.8881671 31.5645,18.46017 C31.5094997,19.0321728 31.4600002,19.5711674 31.416,20.07717 L28.116,48.12717 L18.612,48.12717 L24.552,0.0461699585 L30.228,0.0461699585 Z M102.894,0.0461699585 L101.772,8.56016996 L89.562,8.56016996 L84.678,48.12717 L73.986,48.12717 L78.804,8.56016996 L56.528,8.56016996 L57.584,0.0461699585 L102.894,0.0461699585 Z M165.66,39.81117 C166.870006,39.81117 167.920496,39.7176709 168.8115,39.53067 C169.702504,39.343669 170.466997,39.1071714 171.105,38.82117 C171.743003,38.5351685 172.281998,38.2216717 172.722,37.88067 C173.162002,37.5396683 173.557998,37.2261714 173.91,36.94017 C174.262002,36.6541685 174.591998,36.4176709 174.9,36.23067 C175.208002,36.043669 175.537998,35.95017 175.89,35.95017 C176.242002,35.95017 176.533499,36.0106694 176.7645,36.13167 C176.995501,36.2526706 177.165999,36.3901692 177.276,36.54417 L181.038,41.06517 C178.94799,43.5511824 176.467514,45.4376635 173.5965,46.72467 C170.725486,48.0116764 167.464018,48.65517 163.812,48.65517 C160.775985,48.65517 158.086512,48.1216753 155.7435,47.05467 C153.400488,45.9876646 151.426008,44.5191793 149.82,42.64917 C148.213992,40.7791606 146.998504,38.5626828 146.1735,35.99967 C145.348496,33.4366571 144.936,30.6701848 144.936,27.70017 C144.936,24.9501562 145.243997,22.3431823 145.86,19.87917 C146.476003,17.4151576 147.344994,15.1381804 148.467,13.04817 C149.589006,10.9581595 150.936492,9.07717832 152.5095,7.40516996 C154.082508,5.7331616 155.82599,4.31417579 157.74,3.14816996 C159.65401,1.98216413 161.710989,1.08567309 163.911,0.458669958 C166.111011,-0.168333177 168.409988,0.0296699585 170.808,0.0296699585 C172.612009,0.0296699585 174.101951,0.0296699584 175.7415,0.0296699585 C177.226507,0.370671663 178.568494,0.843666933 179.7675,1.44866996 C180.966506,2.05367298 182.038995,2.77416578 182.985,3.61016996 C183.931005,4.44617414 184.755996,7.54694684 185.46,8.5589519 C176.029337,8.5589519 170.969337,8.5589519 170.28,8.5589519 C168.25599,8.5589519 166.369509,8.85716567 164.6205,9.71516996 C162.871491,10.5731742 161.353506,11.799662 160.0665,13.39467 C158.779494,14.9896779 157.773004,16.9256586 157.047,19.20267 C156.320996,21.4796813 155.958,24.0261559 155.958,26.84217 C155.958,28.8881802 156.205498,30.7141619 156.7005,32.32017 C157.195502,33.926178 157.871996,35.2846644 158.73,36.39567 C159.588004,37.5066755 160.610994,38.353667 161.799,38.93667 C162.987006,39.5196729 164.273993,39.81117 165.66,39.81117 Z M222.09,0.0461699585 L220.968,8.56016996 L208.758,8.56016996 L203.874,48.12717 L193.182,48.12717 L198,8.56016996 L173.724,8.56016996 L174.78,0.0461699585 L222.09,0.0461699585 Z" id="INTACT" fill-rule="nonzero"></path>
                <path d="M128.990784,37.13817 L125.4,16.08417 C125.201999,14.9401642 124.987501,13.7796758 124.7565,12.60267 C124.525499,11.4256641 124.333001,10.3531748 124.179,9.38516996 C124.002999,9.9131726 123.772001,10.5126666 123.486,11.18367 C123.199999,11.8546733 122.919501,12.5091668 122.6445,13.14717 C122.369499,13.7851731 122.105501,14.3791672 121.8525,14.92917 C121.599499,15.4791727 121.418001,15.8861686 121.308,16.15017 L112.678364,37.13817 L112.662,37.13817 L109.098,45.78417 C108.855999,46.400173 108.383004,46.9446676 107.679,47.41767 C106.974996,47.8906723 106.194004,48.12717 105.336,48.12717 L96.888,48.12717 L119.856,0.0461699585 L130.878,0.0461699585 L142.032,48.12717 L133.716,48.12717 C132.791995,48.12717 132.049503,47.9126721 131.4885,47.48367 C130.927497,47.0546678 130.592001,46.4881735 130.482,45.78417 L128.997,37.13817 L128.990784,37.13817 Z" id="Combined-Shape"></path>
            </g>
        </g>
    </g>
</svg>