<?xml version="1.0" encoding="UTF-8"?>
<svg width="128px" height="48px" viewBox="0 0 128 48" version="1.1" xmlns="http://www.w3.org/2000/svg" xmlns:xlink="http://www.w3.org/1999/xlink">
    <!-- Generator: Sketch 55.2 (78181) - https://sketchapp.com -->
    <title>logo_intact</title>
    <desc>Created with Sketch.</desc>
    <g id="logo_intact" stroke="none" stroke-width="1" fill="none" fill-rule="evenodd">
        <g id="Group" transform="translate(20.000000, 15.000000)" fill="#000000">
            <path d="M4.19706122,18.6615557 L7.10542736e-14,18.6615557 L2.27767347,0.017902637 L6.47473469,0.017902637 L4.19706122,18.6615557 Z M11.7210612,0.017902637 C11.900205,0.017902637 12.0516218,0.0243005322 12.1753163,0.0370965145 C12.2990108,0.0498924969 12.4099077,0.0797493411 12.5080102,0.126667943 C12.6061127,0.173586545 12.6935506,0.239698129 12.7703265,0.325004678 C12.8471024,0.410311227 12.9238772,0.521208077 13.0006531,0.657698555 L19.5393673,12.1740251 C19.5564287,11.8754522 19.5820202,11.5896795 19.6161429,11.3166986 C19.6502655,11.0437176 19.6801223,10.7878018 19.7057143,10.5489435 L20.9597143,0.017902637 L24.6449388,0.017902637 L22.3416735,18.6615557 L20.1663673,18.6615557 C19.8422025,18.6615557 19.5734909,18.6146378 19.3602245,18.5208006 C19.1469581,18.4269634 18.9635518,18.2435571 18.81,17.9705761 L12.2968776,6.46704549 C12.2798162,6.70590383 12.2606226,6.93622806 12.2392959,7.15802509 C12.2179693,7.37982211 12.1987756,7.58882002 12.1817143,7.78502509 L10.9021224,18.6615557 L7.21689796,18.6615557 L9.52016327,0.017902637 L11.7210612,0.017902637 Z M39.8976735,0.017902637 L39.4626122,3.31924958 L34.7281224,3.31924958 L32.8343265,18.6615557 L28.688449,18.6615557 L30.5566531,3.31924958 L21.9190204,3.31924958 L22.3284898,0.017902637 L39.8976735,0.017902637 Z M64.2355102,15.4369843 C64.7046962,15.4369843 65.1120289,15.4007295 65.4575204,15.328219 C65.8030119,15.2557084 66.0994477,15.1640052 66.3468367,15.0531067 C66.5942257,14.9422082 66.8032236,14.8206482 66.9738367,14.688423 C67.1444498,14.5561979 67.2979993,14.4346379 67.4344898,14.3237394 C67.5709803,14.2128409 67.6989382,14.1211377 67.8183673,14.0486271 C67.9377965,13.9761166 68.0657544,13.9398618 68.2022449,13.9398618 C68.3387354,13.9398618 68.4517649,13.9633208 68.5413367,14.0102394 C68.6309086,14.057158 68.6970202,14.1104738 68.7396735,14.1701884 L70.1984082,15.9232292 C69.3879959,16.8871932 68.426179,17.6186859 67.3129286,18.1177292 C66.1996735,18.6167725 64.9350275,18.8662904 63.5189388,18.8662904 C62.3417084,18.8662904 61.2988515,18.6594251 60.3903367,18.2456884 C59.481822,17.8319516 58.7162072,17.2625389 58.0934694,16.5374332 C57.4707316,15.8123276 56.99942,14.952877 56.6795204,13.9590557 C56.3596208,12.9652344 56.1996735,11.8925206 56.1996735,10.7408822 C56.1996735,9.67455037 56.3191008,8.66368292 56.5579592,7.70824958 C56.7968175,6.75281623 57.1337733,5.86990669 57.5688367,5.05949447 C58.0039001,4.24908226 58.5263949,3.51972221 59.1363367,2.87139243 C59.7462786,2.22306266 60.4223228,1.67284367 61.1644898,1.22071896 C61.9066568,0.768594254 62.704261,0.420975281 63.5573265,0.177851617 C64.410392,-0.065272048 65.3018321,0.0115046778 66.2316735,0.0115046778 C66.9311872,0.0115046778 67.5089199,0.0115046778 68.1446633,0.0115046778 C68.7204825,0.143729829 69.2408446,0.327136158 69.7057653,0.561729168 C70.170686,0.796322177 70.5865492,1.07569693 70.9533673,1.39986182 C71.3201855,1.72402671 71.6400803,2.92636714 71.9130612,3.31877727 C68.2562734,3.31877727 66.2942326,3.31877727 66.0269388,3.31877727 C65.2421185,3.31877727 64.5106258,3.43441118 63.8324388,3.76710672 C63.1542517,4.09980226 62.5656454,4.57537914 62.066602,5.19385162 C61.5675587,5.8123241 61.1772871,6.56301047 60.8957755,7.44593325 C60.6142639,8.32885603 60.4735102,9.31626452 60.4735102,10.4081884 C60.4735102,11.2015393 60.5694786,11.909573 60.7614184,12.5323108 C60.9533581,13.1550486 61.2156718,13.6818086 61.5483673,14.1126067 C61.8810629,14.5434048 62.2777324,14.8718301 62.7383878,15.0978924 C63.1990431,15.3239548 63.6980789,15.4369843 64.2355102,15.4369843 Z M86.1165306,0.017902637 L85.6814694,3.31924958 L80.9469796,3.31924958 L79.0531837,18.6615557 L74.9073061,18.6615557 L76.7755102,3.31924958 L67.3623673,3.31924958 L67.7718367,0.017902637 L86.1165306,0.017902637 Z" id="INTACT-Copy" fill-rule="nonzero"></path>
            <path d="M50.0168345,14.4005149 L48.6244898,6.23671896 C48.5477139,5.79312491 48.4645413,5.34313961 48.3749694,4.88674958 C48.2853975,4.43035954 48.2107554,4.01449635 48.1510408,3.63914753 C48.0827956,3.84388325 47.993225,4.07634011 47.8823265,4.33652509 C47.771428,4.59671006 47.6626638,4.85049324 47.5560306,5.09788223 C47.4493974,5.34527122 47.3470311,5.57559545 47.2489286,5.78886182 C47.150826,6.00212819 47.0804492,6.15994294 47.0377959,6.2623108 L43.6916106,14.4005149 L43.6852653,14.4005149 L42.3033061,17.7530455 C42.2094689,17.9919038 42.0260626,18.2030344 41.7530816,18.3864435 C41.4801007,18.5698525 41.177267,18.6615557 40.8445714,18.6615557 L37.5688163,18.6615557 L46.4747755,0.017902637 L50.7486122,0.017902637 L55.0736327,18.6615557 L51.8490612,18.6615557 C51.4907737,18.6615557 51.2028684,18.5783831 50.9853367,18.4120353 C50.767805,18.2456875 50.6377145,18.0260265 50.5950612,17.7530455 L50.0192449,14.4005149 L50.0168345,14.4005149 Z" id="Combined-Shape"></path>
        </g>
    </g>
</svg>