<?xml version="1.0" encoding="UTF-8"?>
<svg width="175px" height="175px" viewBox="0 0 175 175" version="1.1" xmlns="http://www.w3.org/2000/svg" xmlns:xlink="http://www.w3.org/1999/xlink">
    <!-- Generator: Sketch 54.1 (76490) - https://sketchapp.com -->
    <title>Group 6 Copy</title>
    <desc>Created with Sketch.</desc>
    <g id="logo" stroke="none" stroke-width="1" fill="none" fill-rule="evenodd">
        <g id="Group-6-Copy">
            <rect id="Rectangle-Copy-10" fill="#FFFFFF" x="0" y="0" width="175" height="175"></rect>
            <g id="Group" transform="translate(30.000000, 43.000000)" fill="#0069A7" fill-rule="nonzero">
                <g id="Group-5">
                    <path d="M8.0290732,87.1322358 C6.43147382,88.7298351 3.84125345,88.7298351 2.24365408,87.1322358 C0.646054702,85.5346364 0.646054702,82.944416 2.24365408,81.3468166 L80.3468122,3.24365854 C81.9444116,1.64605917 84.5346319,1.64605917 86.1322313,3.24365854 C87.7298307,4.84125792 87.7298307,7.43147829 86.1322313,9.02907766 L8.0290732,87.1322358 Z" id="Path-5-Copy-13" transform="translate(44.187943, 45.187947) rotate(1.000000) translate(-44.187943, -45.187947) "></path>
                    <path d="M37.2699859,85.7057255 C35.6964298,87.3270116 33.1064984,87.3657044 31.4852123,85.7921483 C29.8639262,84.2185922 29.8252334,81.6286609 31.3987895,80.0073747 L105.86036,3.28719273 C107.433916,1.6659066 110.023847,1.62721378 111.645133,3.20076989 C113.26642,4.774326 113.305112,7.36425735 111.731556,8.98554348 L37.2699859,85.7057255 Z" id="Path-5-Copy-14" transform="translate(71.565173, 44.496459) rotate(2.000000) translate(-71.565173, -44.496459) "></path>
                    <path d="M14.1109702,53.5162305 C12.4838457,55.0837488 9.89407611,55.0354284 8.32655783,53.408304 C6.75903956,51.7811795 6.80735991,49.1914099 8.43448436,47.6238916 L54.5578052,3.19019866 C56.1849296,1.62268039 58.7746992,1.67100074 60.3422175,3.29812519 C61.9097358,4.92524964 61.8614154,7.51501927 60.234291,9.08253754 L14.1109702,53.5162305 Z" id="Path-5-Copy-15"></path>
                    <path d="M63.2679515,86.178391 C61.6767875,87.7824 59.0865881,87.7928129 57.4825791,86.2016489 C55.8785702,84.6104849 55.8681573,82.0202855 57.4593212,80.4162765 L101.537188,35.9825836 C103.128351,34.3785746 105.718551,34.3681617 107.32256,35.9593257 C108.926569,37.5504897 108.936982,40.1406891 107.345818,41.7446981 L63.2679515,86.178391 Z" id="Path-5-Copy-16" transform="translate(82.402569, 61.080487) rotate(1.000000) translate(-82.402569, -61.080487) "></path>
                </g>
            </g>
        </g>
    </g>
</svg>