<?xml version="1.0" encoding="UTF-8"?>
<svg width="21px" height="21px" viewBox="0 0 21 21" version="1.1" xmlns="http://www.w3.org/2000/svg" xmlns:xlink="http://www.w3.org/1999/xlink">
    <!-- Generator: Sketch 61.2 (89653) - https://sketch.com -->
    <title>Help</title>
    <g id="janvier-20" stroke="none" stroke-width="1" fill="none" fill-rule="evenodd">
        <g id="HOME-PROJETS_-test-Copy-2" transform="translate(-1210.000000, -14.000000)" fill="currentColor">
            <g id="header">
                <g id="Group-7" transform="translate(1210.000000, 14.000000)">
                    <path d="M10.5,0 C16.2989899,0 21,4.70101013 21,10.5 C21,16.2989899 16.2989899,21 10.5,21 C4.70101013,21 0,16.2989899 0,10.5 C0,4.70101013 4.70101013,0 10.5,0 Z M10.457,13.1345 C10.3183333,13.1345 10.1883333,13.1605 10.067,13.2125 C9.94566667,13.2645 9.84058333,13.3338333 9.75175,13.4205 C9.66291667,13.5071667 9.59358333,13.6111667 9.54375,13.7325 C9.49391667,13.8538333 9.469,13.9816667 9.469,14.116 C9.469,14.2546667 9.49391667,14.3835833 9.54375,14.50275 C9.59358333,14.6219167 9.66291667,14.7248333 9.75175,14.8115 C9.84058333,14.8981667 9.94566667,14.9664167 10.067,15.01625 C10.1883333,15.0660833 10.3183333,15.091 10.457,15.091 C10.5913333,15.091 10.7191667,15.0660833 10.8405,15.01625 C10.9618333,14.9664167 11.0658333,14.8981667 11.1525,14.8115 C11.2391667,14.7248333 11.3085,14.6219167 11.3605,14.50275 C11.4125,14.3835833 11.4385,14.2546667 11.4385,14.116 C11.4385,13.9816667 11.4125,13.8538333 11.3605,13.7325 C11.3085,13.6111667 11.2391667,13.5071667 11.1525,13.4205 C11.0658333,13.3338333 10.9618333,13.2645 10.8405,13.2125 C10.7191667,13.1605 10.5913333,13.1345 10.457,13.1345 Z M10.73,5.497 C10.4526667,5.497 10.1948333,5.52191667 9.9565,5.57175 C9.71816667,5.62158333 9.49716667,5.68983333 9.2935,5.7765 C9.08983333,5.86316667 8.90025,5.965 8.72475,6.082 C8.60775,6.16 8.49700926,6.24088889 8.39252778,6.32466667 L8.2405,6.4525 L8.663,7.122 C8.73233333,7.252 8.845,7.317 9.001,7.317 C9.066,7.317 9.13966667,7.28991667 9.222,7.23575 C9.30433333,7.18158333 9.40508333,7.12091667 9.52425,7.05375 C9.64341667,6.98658333 9.78858333,6.92591667 9.95975,6.87175 C10.1309167,6.81758333 10.34,6.7905 10.587,6.7905 C10.756,6.7905 10.9130833,6.81433333 11.05825,6.862 C11.2034167,6.90966667 11.328,6.97791667 11.432,7.06675 C11.536,7.15558333 11.61725,7.26175 11.67575,7.38525 C11.73425,7.50875 11.7635,7.6485 11.7635,7.8045 C11.7635,8.0385 11.7158333,8.24216667 11.6205,8.4155 C11.5251667,8.58883333 11.406,8.74375 11.263,8.88025 C11.12,9.01675 10.9661667,9.1435 10.8015,9.2605 C10.6368333,9.3775 10.483,9.49775 10.34,9.62125 C10.197,9.74475 10.0778333,9.87691667 9.9825,10.01775 C9.90623333,10.1304167 9.86047333,10.25903 9.84522,10.40359 L9.8395,10.515 L9.8395,10.57025 L9.841125,10.5954375 L9.841125,10.5954375 L9.846,10.6255 L9.9565,11.685 L11.055,11.685 L11.2045,10.736 C11.2261667,10.5973333 11.29225,10.47275 11.40275,10.36225 C11.51325,10.25175 11.6443333,10.1390833 11.796,10.02425 C11.9476667,9.90941667 12.108,9.787 12.277,9.657 C12.446,9.527 12.6030833,9.37316667 12.74825,9.1955 C12.8934167,9.01783333 13.0136667,8.80875 13.109,8.56825 C13.2043333,8.32775 13.252,8.04283333 13.252,7.7135 C13.252,7.3755 13.1913333,7.07 13.07,6.797 C12.9486667,6.524 12.7775,6.29108333 12.5565,6.09825 C12.3355,5.90541667 12.0700833,5.757 11.76025,5.653 C11.4504167,5.549 11.107,5.497 10.73,5.497 Z" id="Combined-Shape"></path>
                </g>
            </g>
        </g>
    </g>
</svg>