<?xml version="1.0" encoding="UTF-8"?>
<svg width="152px" height="173px" viewBox="0 0 152 173" version="1.1" xmlns="http://www.w3.org/2000/svg" xmlns:xlink="http://www.w3.org/1999/xlink">
    <!-- Generator: Sketch 58 (84663) - https://sketch.com -->
    <title>Group 9</title>
    <desc>Created with Sketch.</desc>
    <g id="Page-1" stroke="none" stroke-width="1" fill="none" fill-rule="evenodd">
        <g id="groups-app-copy-4" transform="translate(-644.000000, -303.000000)" fill="#006AAC" fill-rule="nonzero">
            <g id="Group-9" transform="translate(643.999668, 303.305956)">
                <path d="M0.000332334917,112.07761 C0.000332334917,110.97304 0.895762835,110.07761 2.00033233,110.07761 C3.10490183,110.07761 4.00033233,110.97304 4.00033233,112.07761 L4.00033233,127.07761 C4.00033233,128.182179 3.10490183,129.07761 2.00033233,129.07761 C0.895762835,129.07761 0.000332334917,128.182179 0.000332334917,127.07761 L0.000332334917,112.07761 Z M0.000332334917,82.07761 C0.000332334917,80.9730405 0.895762835,80.07761 2.00033233,80.07761 C3.10490183,80.07761 4.00033233,80.9730405 4.00033233,82.07761 L4.00033233,97.07761 C4.00033233,98.1821795 3.10490183,99.07761 2.00033233,99.07761 C0.895762835,99.07761 0.000332334917,98.1821795 0.000332334917,97.07761 L0.000332334917,82.07761 Z M0.000332334917,52.07761 C0.000332334917,50.9730405 0.895762835,50.07761 2.00033233,50.07761 C3.10490183,50.07761 4.00033233,50.9730405 4.00033233,52.07761 L4.00033233,67.07761 C4.00033233,68.1821795 3.10490183,69.07761 2.00033233,69.07761 C0.895762835,69.07761 0.000332334917,68.1821795 0.000332334917,67.07761 L0.000332334917,52.07761 Z M18.416229,30.3803042 C19.3716433,29.8259962 20.595515,30.151157 21.149823,31.1065712 C21.7041311,32.0619855 21.3789702,33.2858572 20.423556,33.8401652 L7.44907711,41.3676414 C6.49366287,41.9219495 5.26979114,41.5967886 4.7154831,40.6413744 C4.16117506,39.6859602 4.48633589,38.4620884 5.44175013,37.9077804 L18.416229,30.3803042 Z M44.3651868,15.3253518 C45.320601,14.7710438 46.5444727,15.0962046 47.0987808,16.0516189 C47.6530888,17.0070331 47.327928,18.2309048 46.3725138,18.7852129 L33.3980349,26.3126891 C32.4426206,26.8669971 31.2187489,26.5418363 30.6644409,25.586422 C30.1101328,24.6310078 30.4352937,23.4071361 31.3907079,22.852828 L44.3651868,15.3253518 Z M70.3141445,0.270399475 C71.2695588,-0.283908565 72.4934305,0.0412522581 73.0477386,0.996666501 C73.6020466,1.95208074 73.2768858,3.17595247 72.3214715,3.73026051 L59.3469926,11.2577367 C58.3915784,11.8120447 57.1677067,11.4868839 56.6133986,10.5314697 C56.0590906,9.57605543 56.3842514,8.3521837 57.3396657,7.79787566 L70.3141445,0.270399475 Z M98.3186544,10.6116468 C99.2764966,11.1617488 99.6070354,12.384179 99.0569334,13.3420212 C98.5068315,14.2998634 97.2844013,14.6304022 96.3265591,14.0803002 L83.3191088,6.60994299 C82.3612666,6.05984108 82.0307278,4.83741085 82.5808298,3.87956866 C83.1309317,2.92172647 84.3533619,2.59118767 85.3112041,3.14128959 L98.3186544,10.6116468 Z M124.333555,25.5523613 C125.291397,26.1024633 125.621936,27.3248935 125.071834,28.2827357 C124.521732,29.2405779 123.299302,29.5711167 122.34146,29.0210147 L109.334009,21.5506575 C108.376167,21.0005556 108.045628,19.7781253 108.59573,18.8202832 C109.145832,17.862441 110.368262,17.5319022 111.326105,18.0820041 L124.333555,25.5523613 Z M151.333666,42.2382518 C151.333666,43.3428213 150.438235,44.2382518 149.333666,44.2382518 C148.279304,44.2382518 147.415501,43.422374 147.339151,42.3875142 L147.333666,42.2166387 L149.333666,42.2166387 L148.337618,43.9509654 L135.34891,36.491372 C134.391068,35.9412701 134.060529,34.7188398 134.610631,33.7609977 C135.160733,32.8031555 136.383163,32.4726167 137.341005,33.0227186 L151.333666,41.0588956 L151.333666,42.2382518 Z M151.333666,72.2382518 C151.333666,73.3428213 150.438235,74.2382518 149.333666,74.2382518 C148.229096,74.2382518 147.333666,73.3428213 147.333666,72.2382518 L147.333666,57.2382518 C147.333666,56.1336823 148.229096,55.2382518 149.333666,55.2382518 C150.438235,55.2382518 151.333666,56.1336823 151.333666,57.2382518 L151.333666,72.2382518 Z M151.333666,102.238252 C151.333666,103.342821 150.438235,104.238252 149.333666,104.238252 C148.229096,104.238252 147.333666,103.342821 147.333666,102.238252 L147.333666,87.2382518 C147.333666,86.1336823 148.229096,85.2382518 149.333666,85.2382518 C150.438235,85.2382518 151.333666,86.1336823 151.333666,87.2382518 L151.333666,102.238252 Z M145.868148,131.39298 C144.912041,131.946091 143.688577,131.619399 143.135466,130.663291 C142.582354,129.707184 142.909047,128.48372 143.865154,127.930608 L148.332169,125.346424 L147.333666,127.07761 L147.333666,117.238252 C147.333666,116.133682 148.229096,115.238252 149.333666,115.238252 C150.438235,115.238252 151.333666,116.133682 151.333666,117.238252 L151.333666,128.231158 L145.868148,131.39298 Z M119.900365,146.415437 C118.944258,146.968548 117.720794,146.641856 117.167682,145.685748 C116.614571,144.729641 116.941263,143.506177 117.897371,142.953066 L130.881262,135.441837 C131.83737,134.888725 133.060834,135.215418 133.613945,136.171525 C134.167057,137.127633 133.840364,138.351097 132.884257,138.904208 L119.900365,146.415437 Z M93.9325814,161.437894 C92.976474,161.991005 91.7530103,161.664313 91.1998987,160.708205 C90.6467871,159.752098 90.9734797,158.528634 91.9295871,157.975523 L104.913479,150.464294 C105.869586,149.911183 107.09305,150.237875 107.646162,151.193983 C108.199273,152.15009 107.872581,153.373554 106.916473,153.926665 L93.9325814,161.437894 Z M65.9618036,166.390109 C65.0056962,165.836997 64.6790036,164.613534 65.2321152,163.657426 C65.7852268,162.701319 67.0086905,162.374626 67.9647979,162.927738 L76.6684961,167.962859 L74.6655019,167.962859 L78.9456954,165.486751 C79.9018027,164.93364 81.1252665,165.260332 81.6783781,166.21644 C82.2314897,167.172547 81.904797,168.396011 80.9486896,168.949122 L75.666999,172.0046 L65.9618036,166.390109 Z M39.9940201,151.367652 C39.0379127,150.81454 38.7112201,149.591076 39.2643317,148.634969 C39.8174433,147.678862 41.040907,147.352169 41.9970144,147.905281 L54.9809061,155.416509 C55.9370135,155.969621 56.2637062,157.193084 55.7105946,158.149192 C55.157483,159.105299 53.9340192,159.431992 52.9779118,158.87888 L39.9940201,151.367652 Z M14.0262366,136.345195 C13.0701292,135.792083 12.7434365,134.568619 13.2965481,133.612512 C13.8496597,132.656404 15.0731235,132.329712 16.0292308,132.882823 L29.0131226,140.394052 C29.96923,140.947164 30.2959226,142.170627 29.742811,143.126735 C29.1896994,144.082842 27.9662357,144.409535 27.0101283,143.856423 L14.0262366,136.345195 Z M0.998835191,128.808796 C0.0427278027,128.255684 -0.283964833,127.03222 0.269146767,126.076113 C0.795919719,125.165534 1.93072181,124.825854 2.86352521,125.273366 L3.04533909,125.371595 C4.00144648,125.924706 4.32813911,127.14817 3.77502751,128.104278 C3.24825456,129.014856 2.11345247,129.354537 1.18064907,128.907024 L0.998835191,128.808796 Z" id="Path-10"></path>
                <path d="M35.0003323,77.6940444 C35.0003323,84.8214614 39.4047696,90.6940444 45.0003323,90.6940444 C50.5958951,90.6940444 55.0003323,84.8214614 55.0003323,77.6940444 C55.0003323,77.1417597 54.5526171,76.6940444 54.0003323,76.6940444 C53.4480476,76.6940444 53.0003323,77.1417597 53.0003323,77.6940444 C53.0003323,83.8214614 49.3458951,88.6940444 45.0003323,88.6940444 C40.6547696,88.6940444 37.0003323,83.8214614 37.0003323,77.6940444 C37.0003323,77.1417597 36.5526171,76.6940444 36.0003323,76.6940444 C35.4480476,76.6940444 35.0003323,77.1417597 35.0003323,77.6940444 Z" id="Path"></path>
                <path d="M97.0003323,77.6940444 C97.0003323,84.8214614 101.40477,90.6940444 107.000332,90.6940444 C112.595895,90.6940444 117.000332,84.8214614 117.000332,77.6940444 C117.000332,77.1417597 116.552617,76.6940444 116.000332,76.6940444 C115.448048,76.6940444 115.000332,77.1417597 115.000332,77.6940444 C115.000332,83.8214614 111.345895,88.6940444 107.000332,88.6940444 C102.65477,88.6940444 99.0003323,83.8214614 99.0003323,77.6940444 C99.0003323,77.1417597 98.5526171,76.6940444 98.0003323,76.6940444 C97.4480476,76.6940444 97.0003323,77.1417597 97.0003323,77.6940444 Z" id="Path-Copy-3"></path>
                <path d="M66.0003323,120.694044 C66.0003323,125.692559 70.5020038,129.694044 76.0003323,129.694044 C81.4986608,129.694044 86.0003323,125.692559 86.0003323,120.694044 C86.0003323,120.14176 85.5526171,119.694044 85.0003323,119.694044 C84.4480476,119.694044 84.0003323,120.14176 84.0003323,120.694044 C84.0003323,124.532086 80.4431293,127.694044 76.0003323,127.694044 C71.5575353,127.694044 68.0003323,124.532086 68.0003323,120.694044 C68.0003323,120.14176 67.5526171,119.694044 67.0003323,119.694044 C66.4480476,119.694044 66.0003323,120.14176 66.0003323,120.694044 Z" id="Path-Copy-4" transform="translate(76.000332, 124.694044) rotate(-180.000000) translate(-76.000332, -124.694044) "></path>
            </g>
        </g>
    </g>
</svg>