<?xml version="1.0" encoding="UTF-8"?>
<svg width="17px" height="24px" viewBox="0 0 17 24" version="1.1" xmlns="http://www.w3.org/2000/svg" xmlns:xlink="http://www.w3.org/1999/xlink">
    <!-- Generator: sketchtool 61.2 (101010) - https://sketch.com -->
    <title>975C6EBA-3392-4884-AAC1-0426F4CBBA15</title>
    <desc>Created with sketchtool.</desc>
    <g id="janvier-20" stroke="none" stroke-width="1" fill="none" fill-rule="evenodd">
        <g id="PROJETS_0" transform="translate(-150.000000, -102.000000)" fill="#0069A7">
            <path d="M162,123.6 L162,124.8 C162,125.46 161.46,126 160.8,126 L160.8,126 L156,126 C155.34,126 154.8,125.46 154.8,124.8 L154.8,124.8 L154.8,123.6 L162,123.6 Z M158.4,102 C163.032,102 166.8,105.768 166.8,110.4 C166.8,113.256 165.372,115.764 163.2,117.288 L163.2,117.288 L163.2,120 C163.2,120.66 162.66,121.2 162,121.2 L162,121.2 L154.8,121.2 C154.14,121.2 153.6,120.66 153.6,120 L153.6,120 L153.6,117.288 C151.428,115.764 150,113.256 150,110.4 C150,105.768 153.768,102 158.4,102 Z" id="Combined-Shape"></path>
        </g>
    </g>
</svg>