<?xml version="1.0" encoding="UTF-8"?>
<svg width="10px" height="14px" viewBox="0 0 10 14" version="1.1" xmlns="http://www.w3.org/2000/svg" xmlns:xlink="http://www.w3.org/1999/xlink">
    <!-- Generator: sketchtool 61.2 (101010) - https://sketch.com -->
    <title>49C22517-2356-4314-AF74-230BBAEE6A29</title>
    <desc>Created with sketchtool.</desc>
    <g id="janvier-20" stroke="none" stroke-width="1" fill="none" fill-rule="evenodd">
        <g id="PROJETS_0" transform="translate(-348.000000, -16.000000)" fill="#FFFFFF">
            <g id="header">
                <g id="Myprojects">
                    <g transform="translate(348.000000, 15.000000)">
                        <path d="M7,13.6 L7,14.3 C7,14.685 6.685,15 6.3,15 L6.3,15 L3.5,15 C3.115,15 2.8,14.685 2.8,14.3 L2.8,14.3 L2.8,13.6 L7,13.6 Z M4.9,1 C7.602,1 9.8,3.198 9.8,5.9 C9.8,7.566 8.967,9.029 7.7,9.918 L7.7,9.918 L7.7,11.5 C7.7,11.885 7.385,12.2 7,12.2 L7,12.2 L2.8,12.2 C2.415,12.2 2.1,11.885 2.1,11.5 L2.1,11.5 L2.1,9.918 C0.833,9.029 9.23705556e-14,7.566 9.23705556e-14,5.9 C9.23705556e-14,3.198 2.198,1 4.9,1 Z" id="Combined-Shape-2"></path>
                    </g>
                </g>
            </g>
        </g>
    </g>
</svg>