<?xml version="1.0" encoding="UTF-8"?>
<svg width="21px" height="20px" viewBox="0 0 21 20" version="1.1" xmlns="http://www.w3.org/2000/svg" xmlns:xlink="http://www.w3.org/1999/xlink">
    <!-- Generator: Sketch 58 (84663) - https://sketch.com -->
    <title>Group 3</title>
    <desc>Created with Sketch.</desc>
    <g id="Page-1" stroke="none" stroke-width="1" fill="currentColor" fill-rule="evenodd" >
        <g id="groups-app-copy-3" transform="translate(-160.000000, -496.000000)" fill="#006AAC" fill-rule="nonzero">
            <g id="Group-3" transform="translate(160.000000, 496.000000)">
                <path d="M5.25,8.52345917 L5.25,2.84526182 L10.154139,0 L15.1083333,2.84526182 L15.1083333,8.52345917 L10.1791667,11.375 L5.25,8.52345917 Z M10.1791667,9.06444469 L13.1083333,7.36991113 L13.1083333,4.0030049 L10.1592157,2.30928618 L7.25,3.9971422 L7.25,7.36991113 L10.1791667,9.06444469 Z" id="Path-10"></path>
                <path d="M11.375,17.3678085 L11.375,12.1263955 L15.9018975,9.5 L20.475,12.1263955 L20.475,17.3678085 L15.925,20 L11.375,17.3678085 Z M15.925,17.6894447 L18.475,16.2142604 L18.475,13.2841386 L15.9069743,11.8092862 L13.375,13.2782759 L13.375,16.2142604 L15.925,17.6894447 Z" id="Path-10-Copy"></path>
                <path d="M-4.54747351e-13,17.3678085 L-4.54747351e-13,12.1263955 L4.52689753,9.5 L9.1,12.1263955 L9.1,17.3678085 L4.55,20 L-4.54747351e-13,17.3678085 Z M2,16.2142604 L4.55,17.6894447 L7.1,16.2142604 L7.1,13.2841386 L4.53197428,11.8092862 L2,13.2782759 L2,16.2142604 Z" id="Path-10-Copy-2"></path>
            </g>
        </g>
    </g>
</svg>