<?xml version="1.0" encoding="UTF-8"?>
<svg width="16px" height="16px" viewBox="0 0 16 16" version="1.1" xmlns="http://www.w3.org/2000/svg" xmlns:xlink="http://www.w3.org/1999/xlink">
    <!-- Generator: sketchtool 61.2 (101010) - https://sketch.com -->
    <title>CE8B4EF7-70A7-40F3-9C53-2ABA74169128</title>
    <desc>Created with sketchtool.</desc>
    <g id="janvier-20" stroke="none" stroke-width="1" fill="none" fill-rule="evenodd">
        <g id="PROJETS_0" transform="translate(-168.000000, -365.000000)" fill="currentColor">
            <g id="APPLICATION-1" transform="translate(150.000000, 155.000000)">
                <path d="M19.7777778,220.666667 L18,220.666667 L18,224.222222 C18,225.2 18.8,226 19.7777778,226 L23.3333333,226 L23.3333333,224.222222 L19.7777778,224.222222 L19.7777778,220.666667 Z M19.7777778,211.777778 L23.3333333,211.777778 L23.3333333,210 L19.7777778,210 C18.8,210 18,210.8 18,211.777778 L18,215.333333 L19.7777778,215.333333 L19.7777778,211.777778 Z M32.2222222,210 L28.6666667,210 L28.6666667,211.777778 L32.2222222,211.777778 L32.2222222,215.333333 L34,215.333333 L34,211.777778 C34,210.8 33.2,210 32.2222222,210 Z M32.2222222,224.222222 L28.6666667,224.222222 L28.6666667,226 L32.2222222,226 C33.2,226 34,225.2 34,224.222222 L34,220.666667 L32.2222222,220.666667 L32.2222222,224.222222 Z M26,214.444444 C24.0355556,214.444444 22.4444444,216.035556 22.4444444,218 C22.4444444,219.964444 24.0355556,221.555556 26,221.555556 C27.9644444,221.555556 29.5555556,219.964444 29.5555556,218 C29.5555556,216.035556 27.9644444,214.444444 26,214.444444 Z M26,219.777778 C25.0222222,219.777778 24.2222222,218.977778 24.2222222,218 C24.2222222,217.022222 25.0222222,216.222222 26,216.222222 C26.9777778,216.222222 27.7777778,217.022222 27.7777778,218 C27.7777778,218.977778 26.9777778,219.777778 26,219.777778 Z" id="Shape-2"></path>
            </g>
        </g>
    </g>
</svg>