<?xml version="1.0" encoding="UTF-8"?>
<svg width="14px" height="15px" viewBox="0 0 14 15" version="1.1" xmlns="http://www.w3.org/2000/svg" xmlns:xlink="http://www.w3.org/1999/xlink">
    <!-- Generator: Sketch 58 (84663) - https://sketch.com -->
    <title>Group 7</title>
    <desc>Created with Sketch.</desc>
    <g id="Page-1" stroke="none" stroke-width="1" fill="none" fill-rule="evenodd">
        <g id="groups-app-copy-3" transform="translate(-708.000000, -501.000000)" fill="#006BB1" fill-rule="nonzero">
            <g id="Group-7" transform="translate(708.000000, 501.000000)">
                <path d="M6.75,7.5 C8.40685425,7.5 9.75,6.15685425 9.75,4.5 C9.75,2.84314575 8.40685425,1.5 6.75,1.5 C5.09314575,1.5 3.75,2.84314575 3.75,4.5 C3.75,6.15685425 5.09314575,7.5 6.75,7.5 Z M6.75,9 C4.26471863,9 2.25,6.98528137 2.25,4.5 C2.25,2.01471863 4.26471863,0 6.75,0 C9.23528137,0 11.25,2.01471863 11.25,4.5 C11.25,6.98528137 9.23528137,9 6.75,9 Z" id="Oval"></path>
                <path d="M1.5,15 L0,15 C0,11.2992416 2.54103464,8.25 5.75,8.25 L7.75,8.25 C10.9589654,8.25 13.5,11.2992416 13.5,15 L12,15 C12,12.0733414 10.0638821,9.75 7.75,9.75 L5.75,9.75 C3.43611786,9.75 1.5,12.0733414 1.5,15 Z" id="Path"></path>
            </g>
        </g>
    </g>
</svg>