<?xml version="1.0" encoding="UTF-8"?>
<svg width="48px" height="48px" viewBox="0 0 48 48" version="1.1" xmlns="http://www.w3.org/2000/svg" xmlns:xlink="http://www.w3.org/1999/xlink">
    <g id="zoom" stroke="none" stroke-width="1" fill="currentColor" fill-rule="evenodd">
        <path d="M27.7820803,25.9345485 L34.3184211,32.4708893 L32.5320461,34.2572643 L26.0059885,27.7312067 C24.7605396,28.6289833 23.2315104,29.1578947 21.5789474,29.1578947 C17.3932103,29.1578947 14,25.7646844 14,21.5789474 C14,17.3932103 17.3932103,14 21.5789474,14 C25.7646844,14 29.1578947,17.3932103 29.1578947,21.5789474 C29.1578947,23.2000488 28.6489305,24.7022753 27.7820803,25.9345485 Z M21.5789474,27.1578947 C24.6601149,27.1578947 27.1578947,24.6601149 27.1578947,21.5789474 C27.1578947,18.4977798 24.6601149,16 21.5789474,16 C18.4977798,16 16,18.4977798 16,21.5789474 C16,24.6601149 18.4977798,27.1578947 21.5789474,27.1578947 Z" id="Combined-Shape" fill-rule="nonzero"></path>
    </g>
</svg>